<svg width="241" height="110" viewBox="0 0 241 110" fill="none" xmlns="http://www.w3.org/2000/svg">
<g filter="url(#filter0_d_4892_22487)">
<path d="M99.4918 98.3072C99.4918 98.5757 99.4055 98.7866 99.2424 98.9592C99.0602 99.151 98.8205 99.2565 98.5136 99.2565H92.8655C92.5203 99.2565 92.2614 99.151 92.0696 98.9305C91.8874 98.7387 91.7915 98.4798 91.7915 98.1633V91.5371C91.7915 91.2781 91.8874 91.048 92.0696 90.8466C92.2518 90.6644 92.4628 90.5781 92.6929 90.5781H98.5616C98.8397 90.5781 99.0698 90.6836 99.2424 90.9042C99.415 91.1151 99.4918 91.3645 99.4918 91.6713V98.3072ZM98.6575 91.6138C98.6575 91.5371 98.6191 91.4508 98.5424 91.374C98.4657 91.2973 98.2643 91.2494 98.178 91.2494H92.9806C92.8943 91.2494 92.8176 91.2877 92.7409 91.374C92.6737 91.4508 92.6354 91.5371 92.6354 91.6042V98.1921C92.6354 98.2976 92.6737 98.3839 92.76 98.451C92.8367 98.5277 92.9326 98.5661 93.0285 98.5661H98.2931C98.5328 98.5661 98.6575 98.4318 98.6575 98.1729V91.6138Z" fill="white"/>
<path d="M94.3423 95.5071C94.1985 95.977 93.7286 96.7729 93.3066 97.3483V98.336C93.8053 97.847 94.4478 96.9168 94.7259 96.2551C94.7259 96.2551 94.7259 97.0702 94.7259 97.2428C94.7259 97.9141 94.9272 98.3264 95.6177 98.3264C96.1163 98.3264 96.2889 98.3264 96.2889 98.3264L96.4903 97.6456C96.4903 97.6456 96.0108 97.6456 95.867 97.6456C95.6081 97.6456 95.4834 97.5593 95.4834 97.3291C95.4834 97.2332 95.4834 95.5071 95.4834 95.4976H94.3519L94.3423 95.5071Z" fill="white"/>
<path d="M96.5481 92.6973V92.2754H98.3989V91.6808H96.5481V91.1055H95.7426V91.6808H94.007V92.2754H95.7426V92.6973H93.748V93.311H98.6482V92.6973H96.5481Z" fill="white"/>
<path d="M97.9576 93.8001C97.8521 93.6851 97.7275 93.6371 97.5741 93.6467H93.6904C93.5657 93.6467 93.4506 93.6946 93.3739 93.7905C93.2876 93.8864 93.2397 94.0015 93.2493 94.1358V94.9604C93.2397 95.1139 93.2876 95.2577 93.3739 95.3632C93.4506 95.4687 93.5561 95.5262 93.6904 95.5358H97.5741C97.7179 95.5262 97.833 95.4783 97.9289 95.3632C98.0439 95.2481 98.1015 95.1139 98.1015 94.9604V94.1358C98.0919 93.9919 98.0439 93.8864 97.9576 93.8001ZM97.4015 94.596C97.4015 94.8166 97.3823 94.8741 97.1521 94.8741H94.189C93.9589 94.8741 93.9301 94.7782 93.9301 94.596V94.4618C93.9301 94.2508 93.9972 94.3084 94.189 94.3084H97.1521C97.3631 94.3084 97.4015 94.2892 97.4015 94.4618V94.596Z" fill="white"/>
<path d="M85.635 95.3826C85.635 97.195 85.1268 98.2882 84.1007 99.2951H82.9404C84.1966 98.2019 84.8199 97.0799 84.8199 95.3059V90.5112H85.635V95.3826Z" fill="white"/>
<path d="M88.6653 99.2951H87.8406C86.5365 99.2951 86.3159 98.4321 86.3159 97.6265V90.5112H87.1214V97.5115C87.1214 98.0485 87.3132 98.5279 87.8982 98.5279H88.9242L88.6845 99.2951H88.6653Z" fill="white"/>
<path d="M137.303 93.0716V95.8909C137.543 95.7758 137.735 95.6703 138.339 95.3155V96.1402C137.102 96.8594 136.277 97.2622 135.385 97.617V96.7635C135.73 96.6389 136.085 96.4854 136.44 96.2936V93.0524H135.395V92.3045H136.44V90.6455H137.303V92.3045H138.387V93.0524H137.303V93.0716Z" fill="white"/>
<path d="M137.763 97.9908C138.454 97.1948 138.722 95.6989 138.78 94.9222C138.837 94.1262 139.566 94.2221 139.566 94.2221H143.603V94.9605H139.585C139.585 94.9605 139.345 97.799 137.763 99.036V97.9908ZM139.556 93.8002C139.422 93.7906 139.307 93.7331 139.221 93.6276C139.125 93.4933 139.077 93.3399 139.087 93.1865V91.1056C139.087 90.9618 139.125 90.8467 139.221 90.7412C139.317 90.6357 139.422 90.5782 139.556 90.5782H142.788C142.951 90.5686 143.095 90.6261 143.21 90.7412C143.306 90.8179 143.354 90.9522 143.363 91.1056V93.1865C143.363 93.3495 143.296 93.4934 143.172 93.618C143.066 93.7235 142.941 93.7906 142.788 93.8002H139.556ZM142.606 91.8344V91.5659C142.606 91.4892 142.587 91.4029 142.548 91.3549C142.5 91.2974 142.424 91.2686 142.337 91.2686H140.122C140.017 91.2686 139.94 91.2878 139.921 91.3357C139.873 91.3933 139.844 91.4796 139.854 91.5659V91.8344H142.615H142.606ZM139.844 92.5344V92.8125C139.844 92.8892 139.863 92.9755 139.911 93.0235C139.95 93.0714 140.026 93.1002 140.113 93.1002H142.328C142.414 93.1002 142.491 93.0714 142.529 93.0235C142.567 92.9755 142.587 92.8988 142.596 92.8125V92.5344H139.834H139.844Z" fill="white"/>
<path d="M88.944 92.6497C88.4837 93.0908 88.1289 93.2635 87.4577 93.6087L87.4385 92.6306C87.9179 92.4004 88.2728 92.199 88.9536 91.6045V92.6497H88.944Z" fill="white"/>
<path d="M88.4451 96.4566C87.8889 96.0922 87.5724 95.9196 87.0163 95.4209L86.9971 94.3853C87.4669 94.8264 87.9944 95.2099 88.4355 95.5168V96.4661L88.4451 96.4566Z" fill="white"/>
<path d="M84.1299 91.6904C84.6669 92.2178 85.0313 92.5055 85.5395 92.7165L85.5203 93.6179C85.0121 93.3877 84.5998 93.1288 84.1395 92.6877V91.6904H84.1299Z" fill="white"/>
<path d="M83.6312 95.5456C84.1011 95.2675 84.4079 94.9415 84.9066 94.4141V95.4689C84.4175 95.9004 84.1106 96.1977 83.6216 96.495V95.5456H83.6312Z" fill="white"/>
<path d="M81.5025 93.1479C81.3875 95.1234 81.1861 96.8207 80.8888 98.3454H80.1792C80.534 96.5809 80.7546 94.8836 80.8409 93.1479H81.5025Z" fill="white"/>
<path d="M82.3943 92.5055V99.2948H81.608V92.5055H80.6011V91.7096H81.608V90.5205H82.3943V91.7096H83.382V92.5055H82.3943Z" fill="white"/>
<path d="M83.6504 97.9426H82.9792C82.6148 95.5453 82.538 94.4137 82.5093 93.1479H83.1614C83.1614 95.0371 83.5162 97.0892 83.6504 97.9426Z" fill="white"/>
<path d="M132.518 98.5084C130.696 97.3289 130.83 95.6412 130.83 94.6343H130.015C130.015 95.7946 130.197 98.2303 132.518 99.3618V98.5084Z" fill="white"/>
<path d="M132.518 95.1329L132.336 94.6343H131.569L131.712 95.0466H128.395C128.136 95.0466 127.915 95.248 127.915 95.574V97.022C127.915 97.4152 127.733 98.1248 127.253 98.47H127.273V99.4098C128.318 98.9687 128.711 97.8084 128.711 97.022V95.8234C128.711 95.8234 131.722 95.8234 132.067 95.8234C132.412 95.8234 132.671 95.5549 132.518 95.1521" fill="white"/>
<path d="M130.418 91.9593C130.37 91.8346 130.207 91.7579 130.092 91.7579C129.977 91.7579 129.401 91.7579 129.401 91.7579L130.36 90.5688H129.42L128.423 91.7963C128.327 91.9018 128.289 92.0648 128.356 92.199C128.413 92.3333 128.548 92.3812 128.692 92.3812H129.382L128.25 93.6278C128.135 93.7333 128.116 93.9155 128.164 94.0498C128.222 94.1936 128.394 94.2799 128.548 94.2799H130.293L130.485 93.5895H129.248C129.248 93.5895 130.149 92.6114 130.312 92.4484C130.475 92.2853 130.485 92.0936 130.427 91.9593" fill="white"/>
<path d="M132.892 91.9593C132.844 91.8346 132.681 91.7579 132.556 91.7579C132.431 91.7579 131.866 91.7579 131.866 91.7579L132.825 90.5688H131.885L130.888 91.7963C130.792 91.9018 130.763 92.0648 130.82 92.199C130.878 92.3333 131.012 92.3812 131.156 92.3812H131.856L130.725 93.6278C130.61 93.7333 130.59 93.9155 130.638 94.0498C130.696 94.1936 130.868 94.2799 131.022 94.2799H132.873L133.064 93.5895H131.722C131.722 93.5895 132.623 92.6114 132.786 92.4484C132.949 92.2853 132.959 92.0936 132.901 91.9593" fill="white"/>
<path d="M132.269 95.9959C131.54 96.9549 130.514 97.8946 129.373 98.3933V99.3043C130.437 98.8056 131.818 97.77 132.269 97.0795V95.9863V95.9959Z" fill="white"/>
<path d="M125.632 93.1865C125.517 95.1428 125.316 96.8305 125.019 98.3648H124.309C124.664 96.6003 124.884 94.903 124.971 93.1865H125.632Z" fill="white"/>
<path d="M126.525 92.5534V99.3139H125.738V92.5534H124.731V91.7479H125.738V90.4917H126.525V91.7479H127.512V92.5534H126.525Z" fill="white"/>
<path d="M127.694 97.4826H127.023C126.754 95.5551 126.678 94.4331 126.639 93.1865H127.291C127.291 95.0469 127.646 97.099 127.694 97.4826Z" fill="white"/>
<path d="M139.509 95.3921H143.028C143.277 95.3921 143.603 95.6606 143.603 96.0538V97.9141V97.8566C143.603 98.9497 142.922 99.2854 142.194 99.2854H142.002L141.791 98.547H142.107C142.481 98.547 142.779 98.3744 142.779 97.8757V97.7798V96.3318C142.779 96.188 142.663 96.0346 142.5 96.0346H142.213C142.04 97.099 141.589 98.5182 141.129 99.2278H140.228C140.736 98.4895 141.254 97.0319 141.417 96.0346H140.794C140.496 97.1757 140.046 98.547 139.451 99.2278H138.54C139.288 98.3456 139.815 97.0127 139.988 96.0346H139.298C139.144 96.0346 139.01 95.977 138.914 95.8716" fill="white"/>
<path d="M129.708 97.8565L128.231 97.2332V96.4277L129.708 97.0606V97.8565Z" fill="white"/>
<path d="M97.363 98.3072C96.874 97.8277 96.2699 97.0414 96.174 96.6099C96.0493 96.0729 96.4616 95.814 96.8932 95.814C97.1233 95.814 98.0535 95.814 98.0535 95.814V96.4852H97.2192C97.0274 96.4852 96.826 96.6578 97.1904 97.0798C97.3343 97.2524 97.8233 97.8757 98.322 98.2976H97.363V98.3072Z" fill="white"/>
<path d="M106.78 97.8471V97.0224C108.036 95.958 108.391 94.3469 108.525 93.5031H109.273C108.976 95.3347 108.314 97.0607 106.78 97.8471ZM109.561 98.3074H108.669C107.653 96.7826 106.646 94.5771 106.54 91.0674H107.346C107.442 94.3565 108.295 96.1977 109.561 98.3074ZM104.172 92.9565V92.1702H108.468C108.429 92.0071 108.362 91.5948 108.362 91.5948H109.158C109.158 91.5948 109.283 92.1989 109.331 92.4003C109.398 92.7263 109.139 92.9661 108.784 92.9661H104.162L104.172 92.9565ZM106.521 97.9334C105.917 98.1252 105.255 98.2498 104.162 98.3074V97.5018C105.083 97.4923 105.744 97.3868 106.521 97.147V97.9238V97.9334Z" fill="white"/>
<path d="M121.433 95.536V96.3416H119.352C119.352 96.3416 119.352 97.1854 119.352 97.9717C119.352 98.7581 118.968 99.3238 118.268 99.3238C118.153 99.3238 117.52 99.3143 117.52 99.3143L117.357 98.5663H118.028C118.345 98.5663 118.508 98.4608 118.508 97.9717V96.3416H116.6V95.536H121.442H121.433ZM119.994 93.1675C120.282 92.6688 120.416 92.2948 120.512 91.9209C120.617 91.4797 120.397 91.3551 120.167 91.3551H119.543V90.6167H120.665C121.087 90.6742 121.356 90.9715 121.289 91.7578C121.26 92.1318 120.944 93.1962 120.627 93.7524L119.994 93.1771V93.1675ZM118.968 92.5442C118.422 93.551 117.654 94.2511 116.475 95.0278V94.0401C117.185 93.5606 118.422 92.5921 118.469 91.4989C118.469 91.403 118.412 91.3359 118.326 91.3359H117.769C117.597 92.0551 116.964 92.6209 116.475 92.9086V91.9784C116.849 91.6428 117.127 91.1441 117.223 90.6263H118.642C119.074 90.6838 119.304 90.8948 119.323 91.2496C119.323 91.4126 119.304 91.5565 119.265 91.7195L118.959 92.5442H118.968ZM118.911 91.1537C119.285 92.3236 120.781 93.6853 121.442 94.0593V95.0278C120.272 94.3182 119.198 93.1771 118.575 92.2853L118.911 91.1537ZM120.781 96.6868C120.8 97.2046 121.02 97.6361 121.433 97.9813V98.9978C120.637 98.5375 120.148 97.78 119.985 96.6964H120.781V96.6868ZM117.779 96.6868C117.606 97.7704 117.127 98.5279 116.331 98.9882V97.9717C116.743 97.6265 116.964 97.2046 116.983 96.6772H117.779V96.6868Z" fill="white"/>
<path d="M110.529 98.2979C110.529 98.5568 110.443 98.7773 110.27 98.9404C110.088 99.1321 109.848 99.2376 109.541 99.2376H103.893C103.558 99.2376 103.289 99.1321 103.097 98.9116C102.915 98.7198 102.819 98.4609 102.819 98.1444V91.5278C102.819 91.2593 102.915 91.0387 103.097 90.8373C103.28 90.6552 103.491 90.5688 103.721 90.5688H109.589C109.877 90.5688 110.098 90.6743 110.27 90.8949C110.443 91.1058 110.529 91.3648 110.529 91.662V98.3075V98.2979ZM109.695 91.6045C109.695 91.5278 109.657 91.4415 109.58 91.3648C109.503 91.288 109.302 91.2401 109.206 91.2401H104.008C103.922 91.2401 103.845 91.2785 103.769 91.3648C103.702 91.4415 103.663 91.5182 103.663 91.5949V98.1828C103.663 98.2883 103.702 98.3746 103.788 98.4417C103.865 98.5184 103.96 98.5568 104.066 98.5568H109.331C109.57 98.5568 109.685 98.4225 109.685 98.1636V91.6045H109.695Z" fill="white"/>
<path d="M106.272 93.6086C106.147 93.4936 105.994 93.436 105.792 93.436H104.91C104.709 93.436 104.527 93.5032 104.392 93.6374C104.249 93.7813 104.172 93.9443 104.172 94.1361V96.006C104.172 96.1882 104.22 96.3512 104.325 96.495C104.469 96.6868 104.632 96.7827 104.824 96.7827H105.716C105.984 96.7827 106.186 96.706 106.329 96.5526C106.464 96.4183 106.531 96.2265 106.531 95.9868V94.2032C106.531 93.9539 106.445 93.7525 106.282 93.6086M105.812 95.9772C105.812 96.1115 105.754 96.1786 105.629 96.1786H105.092C105.092 96.1786 105.006 96.1498 104.968 96.1019C104.92 96.0443 104.901 95.9868 104.901 95.9293V94.2799C104.901 94.1265 104.977 94.0402 105.14 94.0402H105.629C105.629 94.0402 105.716 94.0593 105.764 94.1073C105.802 94.1552 105.821 94.2128 105.821 94.2511V95.9676L105.812 95.9772Z" fill="white"/>
<path d="M120.771 94.2222H117.117V95.0469H120.771V94.2222Z" fill="white"/>
<path d="M115.938 96.9838C115.765 97.118 115.602 97.1756 115.353 97.1756H114.298L114.03 96.4468H115.056C115.209 96.4468 115.324 96.418 115.401 96.3509C115.487 96.2838 115.535 96.1783 115.554 96.044C115.66 95.3536 115.516 94.6536 114.854 93.5987C115.19 92.7549 115.296 92.1124 115.449 91.4699C115.478 91.3452 115.43 91.2877 115.324 91.2877H114.797C114.682 91.2877 114.624 91.3548 114.624 91.4891V99.2565H113.79V91.3261C113.79 91.0863 113.876 90.8945 114.03 90.7411C114.164 90.6164 114.346 90.5493 114.557 90.5493H115.583C115.813 90.5493 115.996 90.626 116.139 90.7891C116.293 90.9617 116.341 91.163 116.283 91.4124C116.12 92.1699 115.986 92.8124 115.698 93.5412C116.36 94.7878 116.456 95.6317 116.293 96.4276C116.245 96.6482 116.12 96.8304 115.928 96.9646" fill="white"/>
<path d="M118.776 93.1001L117.692 91.9973L117.97 91.374L119.054 92.4768L118.776 93.1001Z" fill="white"/>
<path d="M118.095 94.0493L117.012 92.9466L117.28 92.3232L118.373 93.426L118.095 94.0493Z" fill="white"/>
<path d="M89.5097 59.6719C89.6823 59.6719 89.8932 59.6719 90.1426 59.7006C90.3823 59.7198 90.6412 59.7678 90.9097 59.8349C91.1782 59.902 91.4371 59.9979 91.6864 60.113C91.9358 60.2281 92.1755 60.3911 92.3769 60.602C92.5878 60.8034 92.7509 61.0527 92.8755 61.3596C93.0002 61.6569 93.0577 62.0213 93.0577 62.4336V67.468L92.5399 67.6406C92.1947 67.7653 91.7536 67.9091 91.207 68.0722C90.6604 68.2352 90.0083 68.3119 89.2699 68.3119C89.0973 68.3119 88.8863 68.3023 88.637 68.2831C88.3973 68.2639 88.1384 68.216 87.8795 68.1489C87.611 68.0817 87.3521 67.9858 87.0931 67.8708C86.8342 67.7557 86.6041 67.5927 86.4027 67.3817C86.2013 67.1803 86.0383 66.931 85.9136 66.6338C85.789 66.3365 85.7314 65.9721 85.7314 65.5597C85.7314 65.1474 85.789 64.783 85.9136 64.4857C86.0383 64.1885 86.2013 63.9391 86.4027 63.7378C86.6041 63.5364 86.8342 63.3734 87.0931 63.2487C87.3521 63.1336 87.6206 63.0377 87.8795 62.9706C88.148 62.9035 88.3973 62.8555 88.637 62.8364C88.8863 62.8172 89.0877 62.8076 89.2699 62.8076C89.711 62.8076 90.1138 62.8364 90.4878 62.9035C90.8618 62.9706 91.1974 63.0377 91.5042 63.124V62.4528C91.5042 62.3569 91.4947 62.2418 91.4755 62.1076C91.4563 61.9733 91.3796 61.8391 91.2549 61.7144C91.1303 61.5897 90.9385 61.4747 90.6604 61.3884C90.3919 61.2925 90.0083 61.2445 89.5097 61.2445C88.8768 61.2445 88.3493 61.2637 87.937 61.3021C87.5247 61.3404 87.1986 61.3692 86.9685 61.4075L86.8246 60.0459C87.0452 59.9787 87.2849 59.9308 87.5534 59.8733C87.7932 59.8349 88.0712 59.7965 88.4069 59.7582C88.7329 59.7198 89.0973 59.7006 89.5001 59.7006M89.2699 66.7968C89.8069 66.7968 90.2672 66.7584 90.6316 66.6913C90.996 66.6146 91.2837 66.5379 91.4947 66.4611V64.7351C91.2837 64.6488 90.996 64.572 90.6316 64.5049C90.2576 64.4282 89.8069 64.3898 89.2699 64.3898C88.7713 64.3898 88.3877 64.4378 88.1192 64.5337C87.8507 64.6296 87.6493 64.7351 87.5247 64.8693C87.4 64.994 87.3233 65.1282 87.3041 65.2625C87.2849 65.3967 87.2753 65.5118 87.2753 65.6077C87.2753 65.7036 87.2753 65.8187 87.3041 65.9529C87.3233 66.0872 87.4 66.2214 87.5247 66.3461C87.6493 66.4707 87.8411 66.5762 88.1192 66.6721C88.3877 66.7584 88.7713 66.8064 89.2699 66.8064V66.7968Z" fill="white"/>
<path d="M98.2837 59.6719C98.3892 59.6719 98.5522 59.6719 98.7728 59.6911C98.9934 59.7006 99.2427 59.7486 99.5208 59.8349C99.7989 59.9212 100.077 60.0459 100.365 60.2185C100.652 60.3911 100.911 60.6404 101.141 60.9568C101.372 61.2733 101.563 61.6856 101.717 62.1843C101.87 62.6829 101.937 63.2871 101.937 64.0159C101.937 64.7446 101.861 65.3488 101.717 65.8378C101.563 66.3365 101.372 66.7392 101.141 67.0653C100.911 67.3817 100.652 67.631 100.365 67.8037C100.077 67.9763 99.7989 68.1009 99.5208 68.1776C99.2427 68.2544 98.9934 68.3023 98.7728 68.3119C98.5522 68.3215 98.3892 68.3311 98.2837 68.3311C98.1687 68.3311 98.0056 68.3311 97.7851 68.3119C97.5645 68.3023 97.3248 68.2544 97.0467 68.1776C96.7686 68.1009 96.4905 67.9763 96.2029 67.8037C95.9152 67.631 95.6563 67.3817 95.4261 67.0653C95.1864 66.7488 95.0042 66.3365 94.8507 65.8378C94.6973 65.3392 94.6206 64.7351 94.6206 64.0159C94.6206 63.2967 94.6973 62.6829 94.8507 62.1843C95.0042 61.6856 95.196 61.2829 95.4261 60.9568C95.6658 60.6404 95.9152 60.3911 96.2029 60.2185C96.4905 60.0459 96.7686 59.9212 97.0467 59.8349C97.3248 59.7486 97.5645 59.7006 97.7851 59.6911C98.0056 59.6815 98.1687 59.6719 98.2837 59.6719ZM98.2837 66.768C98.4659 66.768 98.6865 66.7488 98.9262 66.7009C99.166 66.6529 99.3961 66.5379 99.6071 66.3461C99.8276 66.1639 100.01 65.8858 100.163 65.5118C100.317 65.1474 100.393 64.6392 100.393 64.0063C100.393 63.3734 100.317 62.8651 100.163 62.4911C100.01 62.1172 99.8276 61.8391 99.6071 61.6473C99.3865 61.4555 99.166 61.3404 98.9262 61.2925C98.6865 61.2445 98.4755 61.2254 98.2837 61.2254C98.1111 61.2254 97.9002 61.2541 97.6604 61.2925C97.4207 61.3404 97.1906 61.4555 96.9796 61.6473C96.759 61.8391 96.5768 62.1172 96.4234 62.4911C96.27 62.8651 96.1933 63.3734 96.1933 64.0063C96.1933 64.6392 96.27 65.1474 96.4234 65.5118C96.5768 65.8762 96.759 66.1543 96.9796 66.3461C97.2001 66.5379 97.4303 66.6529 97.6604 66.7009C97.9002 66.7488 98.1111 66.768 98.2837 66.768Z" fill="white"/>
<path d="M110.731 59.9017L107.461 68.9253C107.154 69.7595 106.78 70.3733 106.32 70.7472C105.859 71.1212 105.255 71.313 104.507 71.313C104.296 71.313 104.114 71.313 103.951 71.313C103.788 71.313 103.654 71.3034 103.539 71.2843C103.404 71.2747 103.289 71.2555 103.184 71.2363L103.357 70.1239H104.277C104.536 70.1239 104.766 70.0856 104.958 70.0185C105.159 69.9417 105.332 69.8363 105.476 69.702C105.629 69.5582 105.763 69.3856 105.879 69.1746C105.994 68.9636 106.099 68.7239 106.205 68.4554L106.425 67.8704L102.963 59.9113L104.507 59.8921L107.096 65.9334L109.187 59.9113H110.731V59.9017Z" fill="white"/>
<path d="M113.637 65.6649C113.752 65.9717 113.915 66.2019 114.116 66.3649C114.317 66.5279 114.538 66.6334 114.797 66.6814C115.056 66.7293 115.315 66.7581 115.574 66.7581C115.833 66.7581 116.139 66.7389 116.446 66.7005C116.753 66.6622 117.146 66.5663 117.597 66.4224V59.8921H119.15V67.4197C118.652 67.6115 118.086 67.8033 117.453 68.0143C116.82 68.2157 116.178 68.3211 115.516 68.3211C115.286 68.3211 115.037 68.3115 114.768 68.2828C114.5 68.254 114.231 68.2061 113.953 68.1198C113.684 68.0335 113.426 67.9088 113.176 67.7362C112.927 67.5636 112.706 67.3334 112.524 67.0553C112.342 66.7773 112.189 66.4224 112.073 66.0005C111.958 65.5786 111.901 65.0703 111.901 64.4662V59.9017H113.464V64.4662C113.464 64.9649 113.521 65.3676 113.646 65.6745" fill="white"/>
<path d="M124.568 59.6719C124.741 59.6719 124.952 59.6719 125.201 59.7006C125.441 59.7198 125.7 59.7678 125.968 59.8349C126.237 59.902 126.496 59.9979 126.745 60.113C127.004 60.2281 127.234 60.3911 127.435 60.602C127.646 60.8034 127.809 61.0527 127.934 61.3596C128.059 61.6569 128.116 62.0213 128.116 62.4336V67.468L127.598 67.6406C127.253 67.7653 126.812 67.9091 126.265 68.0722C125.719 68.2352 125.076 68.3119 124.328 68.3119C124.156 68.3119 123.945 68.3023 123.695 68.2831C123.456 68.2639 123.197 68.216 122.928 68.1489C122.66 68.0817 122.401 67.9858 122.142 67.8708C121.883 67.7557 121.653 67.5927 121.452 67.3817C121.25 67.1803 121.087 66.931 120.962 66.6338C120.838 66.3365 120.78 65.9721 120.78 65.5597C120.78 65.1474 120.847 64.783 120.962 64.4857C121.087 64.1885 121.25 63.9391 121.452 63.7378C121.653 63.5364 121.883 63.3734 122.142 63.2487C122.401 63.1336 122.66 63.0377 122.928 62.9706C123.197 62.9035 123.446 62.8555 123.695 62.8364C123.935 62.8172 124.146 62.8076 124.328 62.8076C124.769 62.8076 125.172 62.8364 125.546 62.9035C125.92 62.9706 126.256 63.0377 126.563 63.124V62.4528C126.563 62.3569 126.553 62.2418 126.534 62.1076C126.515 61.9733 126.438 61.8391 126.313 61.7144C126.189 61.5897 125.987 61.4747 125.719 61.3884C125.45 61.2925 125.067 61.2445 124.568 61.2445C123.935 61.2445 123.408 61.2637 122.995 61.3021C122.583 61.3404 122.257 61.3692 122.027 61.4075L121.893 60.0459C122.113 59.9787 122.353 59.9308 122.621 59.8733C122.861 59.8349 123.139 59.7965 123.475 59.7582C123.801 59.7198 124.165 59.7006 124.578 59.7006M124.338 66.7968C124.875 66.7968 125.335 66.7584 125.7 66.6913C126.064 66.6146 126.361 66.5379 126.563 66.4611V64.7351C126.352 64.6488 126.064 64.572 125.7 64.5049C125.335 64.4282 124.875 64.3898 124.338 64.3898C123.839 64.3898 123.456 64.4378 123.187 64.5337C122.919 64.6296 122.717 64.7351 122.593 64.8693C122.468 64.994 122.391 65.1282 122.372 65.2625C122.353 65.3967 122.343 65.5118 122.343 65.6077C122.343 65.7036 122.343 65.8187 122.372 65.9529C122.391 66.0872 122.468 66.2214 122.593 66.3461C122.717 66.4707 122.919 66.5762 123.187 66.6721C123.456 66.7584 123.839 66.8064 124.338 66.8064V66.7968Z" fill="white"/>
<path d="M135.634 62.3185C135.519 62.0117 135.356 61.7815 135.155 61.6185C134.953 61.4555 134.733 61.35 134.483 61.3021C134.234 61.2445 133.985 61.2254 133.726 61.2254C133.448 61.2254 133.112 61.2445 132.738 61.2829C132.355 61.3212 131.942 61.4171 131.482 61.561V68.0913H129.919V60.5637C130.168 60.4678 130.446 60.3719 130.753 60.2664C131.06 60.1609 131.377 60.065 131.722 59.9787C132.057 59.8924 132.403 59.8157 132.748 59.7582C133.093 59.7006 133.429 59.6719 133.755 59.6719C134.109 59.6719 134.493 59.7006 134.915 59.7678C135.337 59.8349 135.73 59.9979 136.094 60.2568C136.459 60.5157 136.766 60.8993 137.005 61.4171C137.255 61.935 137.37 62.635 137.37 63.5268V68.0913H135.816V63.5268C135.816 63.0282 135.759 62.6254 135.634 62.3185Z" fill="white"/>
<path d="M82.2793 59.3358V68.2923H80.5244V59.3358H77.1777V57.8687H85.626V59.3358H82.2793Z" fill="white"/>
<path d="M82.2218 73.5093V83.8946H80.6779L80.6587 73.5093H82.2218Z" fill="white"/>
<path d="M199.883 75.4653C200.084 75.4653 200.266 75.4749 200.448 75.5037C200.621 75.5325 200.784 75.5612 200.928 75.59C201.091 75.6283 201.244 75.6763 201.379 75.7147L201.235 77.0188H199.883C199.336 77.0188 198.876 77.0572 198.502 77.1243C198.137 77.201 197.84 77.2777 197.639 77.364V83.8944H196.076V76.3667C196.373 76.2421 196.67 76.127 196.967 76.0215C197.255 75.916 197.552 75.8201 197.859 75.7434C198.166 75.6667 198.473 75.5996 198.809 75.542C199.135 75.4941 199.499 75.4749 199.892 75.4749" fill="white"/>
<path d="M112.812 75.4365C113.013 75.4365 113.195 75.4461 113.378 75.4749C113.55 75.5036 113.713 75.5324 113.857 75.5612C114.02 75.5995 114.174 75.6475 114.308 75.6858L114.164 76.99H112.802C112.256 76.99 111.795 77.0284 111.421 77.0955C111.047 77.1722 110.76 77.2489 110.558 77.3352V83.8656H109.005V76.3283C109.302 76.2037 109.599 76.0886 109.897 75.9831C110.184 75.8776 110.482 75.7817 110.789 75.705C111.095 75.6187 111.402 75.5516 111.738 75.5036C112.064 75.4557 112.428 75.4365 112.821 75.4365" fill="white"/>
<path d="M206.337 75.4175C206.452 75.4175 206.615 75.4175 206.835 75.4367C207.056 75.4463 207.296 75.4942 207.574 75.5709C207.852 75.6476 208.13 75.7723 208.418 75.9449C208.705 76.1175 208.964 76.3668 209.194 76.6833C209.424 76.9997 209.626 77.4121 209.77 77.9107C209.923 78.4094 210 79.0135 210 79.7423C210 80.4711 209.923 81.0752 209.77 81.5643C209.616 82.0629 209.424 82.4657 209.194 82.7917C208.964 83.1082 208.705 83.3575 208.418 83.5301C208.13 83.7027 207.852 83.8274 207.574 83.9137C207.296 84 207.046 84.0479 206.826 84.0575C206.605 84.0575 206.442 84.0767 206.337 84.0767C205.905 84.0767 205.493 84.0479 205.119 83.9808C204.745 83.9232 204.409 83.8465 204.102 83.7602V86.6754H202.549V76.2709L203.067 76.0791C203.412 75.9545 203.853 75.8106 204.4 75.6572C204.946 75.4942 205.589 75.4175 206.337 75.4175ZM206.337 82.4944C206.528 82.4944 206.739 82.4752 206.979 82.4273C207.219 82.3794 207.449 82.2643 207.66 82.0725C207.881 81.8807 208.063 81.6026 208.216 81.2382C208.37 80.8738 208.446 80.3752 208.446 79.7327C208.446 79.0902 208.37 78.5916 208.216 78.2272C208.063 77.8628 207.881 77.5847 207.66 77.3929C207.439 77.2011 207.219 77.086 206.979 77.0381C206.739 76.9901 206.528 76.971 206.337 76.971C205.8 76.971 205.339 77.0093 204.975 77.0764C204.611 77.1532 204.313 77.2299 204.112 77.3162V82.1684C204.323 82.2547 204.611 82.3314 204.975 82.4081C205.349 82.4848 205.8 82.5136 206.337 82.5136V82.4944Z" fill="white"/>
<path d="M215.073 75.4175C215.178 75.4175 215.341 75.4175 215.562 75.4367C215.792 75.4463 216.032 75.4942 216.31 75.5805C216.588 75.6668 216.866 75.7915 217.154 75.9641C217.441 76.1367 217.7 76.386 217.93 76.7025C218.161 77.0189 218.362 77.4312 218.506 77.9299C218.659 78.4285 218.736 79.0327 218.736 79.7615C218.736 80.4903 218.659 81.0944 218.506 81.593C218.352 82.0917 218.161 82.4944 217.93 82.8205C217.7 83.1369 217.441 83.3862 217.154 83.5588C216.866 83.7315 216.588 83.8561 216.31 83.9328C216.032 84.0095 215.782 84.0575 215.562 84.0671C215.341 84.0767 215.178 84.0863 215.073 84.0863C214.958 84.0863 214.795 84.0863 214.574 84.0671C214.354 84.0575 214.104 84.0095 213.836 83.9328C213.558 83.8561 213.28 83.7315 212.992 83.5588C212.704 83.3862 212.445 83.1369 212.215 82.8205C211.985 82.504 211.784 82.0917 211.64 81.593C211.486 81.0944 211.41 80.4903 211.41 79.7615C211.41 79.0327 211.486 78.4285 211.64 77.9299C211.793 77.4312 211.985 77.0285 212.215 76.7025C212.445 76.386 212.704 76.1367 212.992 75.9641C213.28 75.7915 213.558 75.6668 213.836 75.5805C214.114 75.4942 214.354 75.4463 214.574 75.4367C214.795 75.4271 214.958 75.4175 215.073 75.4175ZM215.073 82.5136C215.265 82.5136 215.476 82.4944 215.715 82.4465C215.955 82.3985 216.185 82.2835 216.396 82.0917C216.617 81.8999 216.799 81.6218 216.952 81.2574C217.106 80.893 217.182 80.3848 217.182 79.7519C217.182 79.119 217.106 78.6107 216.952 78.2368C216.799 77.8628 216.617 77.5847 216.396 77.3929C216.176 77.2011 215.945 77.086 215.715 77.0381C215.476 76.9901 215.265 76.971 215.073 76.971C214.9 76.971 214.689 76.9997 214.449 77.0381C214.21 77.086 213.98 77.2011 213.769 77.3929C213.548 77.5847 213.366 77.8628 213.212 78.2368C213.059 78.6107 212.982 79.1094 212.982 79.7519C212.982 80.3944 213.059 80.893 213.212 81.2574C213.366 81.6218 213.548 81.8999 213.769 82.0917C213.989 82.2835 214.21 82.3985 214.449 82.4465C214.689 82.4944 214.891 82.5136 215.073 82.5136Z" fill="white"/>
<path d="M149.031 75.4077C149.136 75.4077 149.299 75.4077 149.52 75.4269C149.74 75.4365 149.99 75.4844 150.268 75.5707C150.546 75.657 150.824 75.7817 151.112 75.9543C151.399 76.1269 151.658 76.3762 151.888 76.6927C152.119 77.0091 152.31 77.4215 152.464 77.9201C152.617 78.4188 152.694 79.0229 152.694 79.7517C152.694 80.4805 152.617 81.0846 152.464 81.5833C152.31 82.0819 152.119 82.4847 151.888 82.8107C151.658 83.1272 151.399 83.3765 151.112 83.5491C150.824 83.7217 150.546 83.8464 150.268 83.9231C149.99 83.9998 149.74 84.0477 149.52 84.0573C149.299 84.0669 149.136 84.0765 149.031 84.0765C148.916 84.0765 148.753 84.0765 148.532 84.0573C148.312 84.0477 148.062 83.9998 147.794 83.9231C147.516 83.8464 147.238 83.7217 146.95 83.5491C146.662 83.3765 146.403 83.1272 146.173 82.8107C145.943 82.4943 145.742 82.0819 145.598 81.5833C145.444 81.0846 145.368 80.4709 145.368 79.7517C145.368 79.0325 145.444 78.4188 145.598 77.9201C145.751 77.4215 145.943 77.0187 146.173 76.6927C146.403 76.3762 146.662 76.1269 146.95 75.9543C147.238 75.7817 147.516 75.657 147.794 75.5707C148.072 75.4844 148.312 75.4365 148.532 75.4269C148.753 75.4173 148.916 75.4077 149.031 75.4077ZM149.031 82.5038C149.223 82.5038 149.434 82.4847 149.673 82.4367C149.913 82.3888 150.143 82.2737 150.354 82.0819C150.575 81.8901 150.757 81.612 150.91 81.2476C151.064 80.8832 151.14 80.375 151.14 79.7421C151.14 79.1092 151.064 78.601 150.91 78.227C150.757 77.853 150.575 77.5749 150.354 77.3831C150.134 77.1913 149.913 77.0763 149.673 77.0283C149.434 76.9804 149.223 76.9612 149.031 76.9612C148.858 76.9612 148.647 76.9804 148.408 77.0283C148.168 77.0763 147.938 77.1913 147.727 77.3831C147.506 77.5749 147.324 77.853 147.17 78.227C147.017 78.601 146.94 79.1092 146.94 79.7421C146.94 80.375 147.017 80.8832 147.17 81.2476C147.324 81.612 147.506 81.8901 147.727 82.0819C147.947 82.2737 148.168 82.3888 148.408 82.4367C148.647 82.4847 148.858 82.5038 149.031 82.5038Z" fill="white"/>
<path d="M224.173 75.4653C224.375 75.4653 224.557 75.4749 224.729 75.5037C224.902 75.5325 225.065 75.5612 225.209 75.59C225.381 75.6283 225.525 75.6763 225.66 75.7147L225.516 77.0188H224.164C223.617 77.0188 223.157 77.0572 222.783 77.1243C222.418 77.201 222.121 77.2777 221.92 77.364V83.8944H220.366V76.3667C220.663 76.2421 220.961 76.127 221.258 76.0215C221.546 75.916 221.843 75.8201 222.15 75.7434C222.447 75.6571 222.764 75.5996 223.09 75.542C223.416 75.4941 223.78 75.4749 224.173 75.4749" fill="white"/>
<path d="M184.866 73.2886H186.822L190.869 83.8752H188.894L187.906 81.0751H183.706L182.718 83.8752H180.819L184.856 73.2886H184.866ZM184.214 79.6655H187.426L185.854 75.1106H185.815L184.224 79.6655H184.214Z" fill="white"/>
<path d="M193.919 76.3955V83.8848H192.375L192.355 76.3955H193.919Z" fill="white"/>
<path d="M194.053 74.1803C194.053 74.6886 193.641 75.1009 193.142 75.1009C192.643 75.1009 192.231 74.6886 192.231 74.1803C192.231 73.6721 192.634 73.2598 193.142 73.2598C193.65 73.2598 194.053 73.6721 194.053 74.1803Z" fill="white"/>
<path d="M143.517 76.4053V83.8946H141.973L141.963 76.4053H143.517Z" fill="white"/>
<path d="M143.651 74.1901C143.651 74.6983 143.239 75.1107 142.74 75.1107C142.241 75.1107 141.829 74.6983 141.829 74.1901C141.829 73.6819 142.232 73.2695 142.74 73.2695C143.248 73.2695 143.651 73.6819 143.651 74.1901Z" fill="white"/>
<path d="M90.1713 78.131C90.0562 77.8242 89.8932 77.594 89.6918 77.431C89.4905 77.268 89.2699 77.1625 89.0206 77.1146C88.7713 77.057 88.5124 77.0379 88.2534 77.0379C87.9753 77.0379 87.6397 77.057 87.2657 77.105C86.8822 77.1433 86.4698 77.2392 86.0095 77.3831V83.9038H84.4561V76.3762C84.7054 76.2803 84.9835 76.1844 85.2903 76.0789C85.5972 75.9734 85.9136 75.8775 86.2589 75.7912C86.5945 75.7049 86.9397 75.6282 87.2849 75.5707C87.6301 75.5131 87.9658 75.4844 88.2918 75.4844C88.6466 75.4844 89.0302 75.5227 89.4521 75.5899C89.874 75.657 90.2672 75.82 90.622 76.0789C90.9864 76.3378 91.2933 76.7214 91.533 77.2392C91.7727 77.7571 91.8974 78.4571 91.8974 79.3489V83.9134H90.3439V79.3489C90.3439 78.8502 90.2864 78.4475 90.1617 78.1406" fill="white"/>
<path d="M121.768 78.0832C121.653 77.7763 121.49 77.5462 121.289 77.3832C121.087 77.2201 120.867 77.1147 120.617 77.0667C120.368 77.0092 120.109 76.99 119.85 76.99C119.572 76.99 119.236 77.0092 118.862 77.0475C118.479 77.0859 118.067 77.1818 117.606 77.3352V83.856H116.053V76.3283C116.302 76.2324 116.58 76.1365 116.887 76.0311C117.194 75.9256 117.51 75.8297 117.856 75.7434C118.191 75.6571 118.536 75.5804 118.882 75.5228C119.227 75.4653 119.562 75.4365 119.888 75.4365C120.243 75.4365 120.627 75.4749 121.049 75.542C121.471 75.6091 121.864 75.7721 122.228 76.0311C122.593 76.29 122.9 76.6735 123.139 77.1914C123.379 77.7092 123.504 78.4092 123.504 79.301V83.8656H121.95V79.301C121.95 78.8024 121.893 78.3996 121.768 78.0928" fill="white"/>
<path d="M232.391 83.7984C232.257 83.8463 232.103 83.8942 231.94 83.9422C231.796 83.971 231.633 83.9997 231.451 84.0285C231.269 84.0573 231.077 84.0669 230.876 84.0669C230.483 84.0669 230.08 84.0381 229.687 83.9997C229.284 83.9518 228.929 83.8463 228.613 83.6737C228.296 83.5011 228.037 83.2422 227.836 82.9065C227.635 82.5709 227.529 82.101 227.529 81.5161V77.0379H226.532V76.3282L228.296 73.8638H229.073V75.6378H231.739V77.0379H229.073V81.5161C229.073 81.6695 229.073 81.8229 229.092 81.9764C229.102 82.1298 229.159 82.2641 229.265 82.3791C229.37 82.4942 229.543 82.5997 229.792 82.6668C230.041 82.7435 230.406 82.7723 230.885 82.7723H232.237L232.391 83.7888V83.7984Z" fill="white"/>
<path d="M99.0224 83.8081C98.8881 83.8561 98.7347 83.904 98.5717 83.952C98.4278 83.9807 98.2648 84.0095 98.0826 84.0383C97.9004 84.067 97.7086 84.0766 97.5168 84.0766C97.1237 84.0766 96.7209 84.0478 96.3278 84.0095C95.925 83.9615 95.5702 83.8465 95.2537 83.6835C94.9373 83.5108 94.6784 83.2519 94.477 82.9163C94.2756 82.5711 94.1701 82.1108 94.1701 81.5259V77.0476H93.1729V76.338L94.9373 73.8735H95.714V75.6476H98.3799V77.0476H95.714V81.5259C95.714 81.6793 95.714 81.8327 95.7332 81.9861C95.7428 82.1396 95.8003 82.2738 95.9058 82.3985C96.0113 82.5231 96.1839 82.619 96.4332 82.6862C96.6826 82.7629 97.047 82.7916 97.5264 82.7916H98.8785L99.0319 83.8081H99.0224Z" fill="white"/>
<path d="M139.959 83.7891C139.825 83.837 139.672 83.885 139.509 83.9329C139.365 83.9617 139.202 83.9904 139.02 84.0192C138.837 84.048 138.646 84.0576 138.454 84.0576C138.061 84.0576 137.658 84.0288 137.265 83.9904C136.862 83.9425 136.507 83.837 136.191 83.6644C135.874 83.4918 135.615 83.2329 135.414 82.8973C135.213 82.5616 135.107 82.0918 135.107 81.5068V77.0286H134.11V76.319L135.874 73.8545H136.651V75.6285H139.317V77.0286H136.651V81.5068C136.651 81.6602 136.651 81.8137 136.661 81.9671C136.67 82.1205 136.728 82.2548 136.833 82.3698C136.939 82.4945 137.111 82.5904 137.361 82.6575C137.61 82.7342 137.974 82.763 138.454 82.763H139.806L139.969 83.7795L139.959 83.7891Z" fill="white"/>
<path d="M128.893 75.4365C129.066 75.4365 129.277 75.4461 129.526 75.4653C129.766 75.4845 130.025 75.5324 130.284 75.5995C130.552 75.6667 130.811 75.7626 131.06 75.8776C131.31 75.9927 131.55 76.1557 131.751 76.3667C131.962 76.5681 132.125 76.8174 132.25 77.1242C132.374 77.4215 132.441 77.7859 132.441 78.1983V83.2327L131.923 83.4053C131.578 83.5299 131.137 83.6738 130.591 83.8368C130.044 83.9998 129.401 84.0765 128.654 84.0765C128.471 84.0765 128.27 84.0669 128.021 84.0478C127.781 84.0286 127.522 83.9806 127.253 83.9135C126.985 83.8464 126.726 83.7505 126.467 83.6354C126.208 83.5108 125.978 83.3573 125.777 83.1464C125.575 82.945 125.412 82.6957 125.288 82.3984C125.163 82.1011 125.105 81.7463 125.105 81.3244C125.105 80.9025 125.173 80.5477 125.288 80.2504C125.412 79.9531 125.575 79.7038 125.777 79.5024C125.978 79.301 126.208 79.138 126.467 79.0134C126.726 78.8887 126.985 78.8024 127.253 78.7257C127.522 78.6585 127.771 78.6106 128.021 78.5914C128.26 78.5722 128.471 78.5627 128.654 78.5627C129.085 78.5627 129.497 78.5914 129.871 78.6585C130.245 78.7161 130.581 78.7928 130.878 78.8791V78.2078C130.878 78.112 130.878 77.9969 130.849 77.8626C130.83 77.7284 130.754 77.5941 130.629 77.4695C130.504 77.3448 130.303 77.2297 130.034 77.1434C129.766 77.0475 129.382 76.9996 128.884 76.9996C128.251 76.9996 127.723 77.0188 127.311 77.0571C126.899 77.0955 126.573 77.1242 126.342 77.1626L126.199 75.8009C126.419 75.7338 126.659 75.6858 126.927 75.6283C127.167 75.59 127.445 75.5516 127.781 75.5132C128.107 75.4749 128.471 75.4557 128.884 75.4557M128.654 82.5422C129.191 82.5422 129.651 82.5039 130.015 82.4368C130.38 82.36 130.667 82.2833 130.878 82.197V80.4709C130.667 80.3846 130.38 80.3079 130.015 80.2312C129.641 80.1545 129.191 80.1257 128.654 80.1257C128.155 80.1257 127.771 80.1737 127.503 80.2696C127.234 80.3654 127.033 80.4709 126.908 80.5956C126.784 80.7203 126.707 80.8545 126.688 80.9888C126.669 81.123 126.659 81.2381 126.659 81.334C126.659 81.4299 126.659 81.5449 126.688 81.6792C126.707 81.8134 126.784 81.9477 126.908 82.0724C127.033 82.197 127.225 82.3025 127.503 82.3984C127.771 82.4847 128.155 82.5326 128.654 82.5326V82.5518V82.5422Z" fill="white"/>
<path d="M160.241 78.1696C160.126 77.8628 159.963 77.6326 159.771 77.4696C159.57 77.3066 159.349 77.2011 159.1 77.1531C158.85 77.0956 158.591 77.0764 158.333 77.0764C158.054 77.0764 157.719 77.0956 157.345 77.1436C156.961 77.1819 156.549 77.2778 156.089 77.4216V83.9424H154.535V76.4148C154.784 76.3189 155.063 76.223 155.369 76.1175C155.676 76.012 155.993 75.9161 156.338 75.8298C156.674 75.7435 157.019 75.6668 157.364 75.6092C157.709 75.5517 158.045 75.5229 158.371 75.5229C158.726 75.5229 159.109 75.5517 159.531 75.6284C159.953 75.6956 160.346 75.8586 160.711 76.1175C161.075 76.3764 161.382 76.76 161.622 77.2778C161.871 77.7956 161.986 78.4957 161.986 79.3875V83.952H160.433V79.3875C160.433 78.8888 160.375 78.4861 160.25 78.1792" fill="white"/>
<path d="M167.356 75.4077C167.529 75.4077 167.74 75.4173 167.989 75.4365C168.229 75.4557 168.488 75.5036 168.756 75.5707C169.025 75.6379 169.274 75.7338 169.533 75.8488C169.782 75.9735 170.022 76.1269 170.223 76.3379C170.434 76.5393 170.597 76.7886 170.722 77.0954C170.847 77.3927 170.914 77.7475 170.914 78.1695V83.2039L170.396 83.3765C170.051 83.5011 169.61 83.645 169.063 83.808C168.516 83.971 167.874 84.0477 167.126 84.0477C166.953 84.0477 166.742 84.0381 166.493 84.019C166.253 83.9998 165.994 83.9518 165.735 83.8847C165.467 83.8176 165.208 83.7217 164.949 83.6066C164.69 83.4916 164.46 83.3285 164.259 83.1176C164.057 82.9162 163.894 82.6669 163.77 82.36C163.645 82.0627 163.587 81.7079 163.587 81.286C163.587 80.8641 163.645 80.5093 163.77 80.212C163.894 79.9147 164.057 79.6654 164.259 79.464C164.46 79.2626 164.69 79.0996 164.949 78.975C165.208 78.8503 165.467 78.764 165.735 78.6969C166.004 78.6297 166.253 78.5818 166.493 78.5626C166.742 78.5434 166.944 78.5338 167.126 78.5338C167.557 78.5338 167.97 78.5626 168.344 78.6297C168.718 78.6969 169.053 78.764 169.351 78.8503V78.179C169.351 78.0831 169.341 77.9681 169.322 77.8338C169.303 77.6996 169.226 77.5653 169.101 77.4407C168.977 77.316 168.775 77.2009 168.507 77.1146C168.238 77.0187 167.855 76.9708 167.356 76.9708C166.723 76.9708 166.196 76.99 165.783 77.0283C165.371 77.0667 165.045 77.0954 164.815 77.1338L164.671 75.7721C164.892 75.705 165.131 75.657 165.4 75.5995C165.64 75.5611 165.918 75.5228 166.253 75.4844C166.579 75.4461 166.944 75.4269 167.356 75.4269M167.126 82.5134C167.663 82.5134 168.123 82.4751 168.488 82.408C168.852 82.3408 169.14 82.2545 169.351 82.1682V80.4421C169.14 80.3558 168.852 80.2791 168.488 80.2024C168.123 80.1353 167.663 80.0969 167.126 80.0969C166.627 80.0969 166.244 80.1449 165.975 80.2408C165.707 80.3366 165.505 80.4421 165.381 80.5668C165.256 80.6915 165.179 80.8257 165.16 80.96C165.141 81.0942 165.131 81.2093 165.131 81.3052C165.131 81.4011 165.131 81.5161 165.16 81.6504C165.179 81.7846 165.256 81.9189 165.381 82.0436C165.505 82.1682 165.697 82.2737 165.975 82.36C166.244 82.4463 166.627 82.4943 167.126 82.4943V82.5134Z" fill="white"/>
<path d="M101.573 80.3751C101.573 80.8545 101.755 81.3148 102.129 81.7655C102.599 82.3409 103.203 82.619 103.951 82.619C104.824 82.619 105.783 82.4272 106.837 82.0532V83.6163C105.773 83.9231 104.814 84.0765 103.951 84.0765C102.599 84.0765 101.554 83.6546 100.815 82.8012C100.115 82.0052 99.77 80.9792 99.77 79.7134C99.77 78.4476 100.106 77.4791 100.767 76.6832C101.506 75.7818 102.561 75.3311 103.932 75.3311C104.862 75.3311 105.658 75.6475 106.32 76.2708C106.981 76.8941 107.317 77.6517 107.317 78.5435C107.317 79.1093 107.106 79.5504 106.694 79.8764C106.281 80.2024 105.783 80.3655 105.198 80.3655H101.563L101.573 80.3751ZM103.961 76.7982C103.136 76.7982 102.503 77.1051 102.043 77.7188C101.736 78.1503 101.573 78.5435 101.573 78.9079H105.044C105.409 78.9079 105.591 78.7353 105.591 78.3901C105.591 78.0448 105.418 77.69 105.073 77.3256C104.728 76.9708 104.354 76.7982 103.951 76.7982" fill="white"/>
<path d="M174.769 84.0478C174.222 84.0478 173.752 83.8848 173.369 83.5588C172.985 83.2231 172.793 82.7916 172.793 82.2738V73.4995H174.289V82.1395C174.289 82.5806 174.52 82.8012 174.98 82.8012C175.44 82.8012 175.814 82.7053 176.131 82.5231V83.7697C175.737 83.9615 175.287 84.0574 174.778 84.0574" fill="white"/>
<path d="M76.8323 40.6465H33.8145V49.3057H51.0178V83.952H59.6194V49.3057H76.8323V40.6465Z" fill="#6ED34B"/>
<mask id="mask0_4892_22487" style="mask-type:luminance" maskUnits="userSpaceOnUse" x="8" y="31" width="44" height="45">
<path d="M51.0179 31.9873H8V75.2929H51.0179V31.9873Z" fill="white"/>
</mask>
<g mask="url(#mask0_4892_22487)">
<path d="M51.0179 75.2929V31.9873H42.4162V49.3057H8V57.9745H42.4162V75.2929H51.0179Z" fill="#FCD78B"/>
</g>
<mask id="mask1_4892_22487" style="mask-type:luminance" maskUnits="userSpaceOnUse" x="16" y="6" width="44" height="44">
<path d="M59.6194 6H16.6016V49.3056H59.6194V6Z" fill="white"/>
</mask>
<g mask="url(#mask1_4892_22487)">
<path d="M16.6016 49.3056H59.6194V40.6464H42.4161V6H33.8145V40.6464H16.6016V49.3056Z" fill="#00ACDC"/>
</g>
<path d="M42.416 14.6592V57.9647H51.0177V40.6464H85.4339V31.9872H51.0177V14.6592H42.416Z" fill="#FC671A"/>
<path d="M51.1519 31.8911H42.416V40.5215H51.1519V31.8911Z" fill="#F15009"/>
<path d="M51.1524 40.5215H42.522V49.1519H51.1524V40.5215Z" fill="#002C02"/>
<path d="M59.7823 40.5215H51.1519V49.1519H59.7823V40.5215Z" fill="url(#paint0_linear_4892_22487)"/>
<path d="M42.522 40.5215H33.8916V49.1519H42.522V40.5215Z" fill="url(#paint1_linear_4892_22487)"/>
</g>
<defs>
<filter id="filter0_d_4892_22487" x="0" y="0" width="240.391" height="109.41" filterUnits="userSpaceOnUse" color-interpolation-filters="sRGB">
<feFlood flood-opacity="0" result="BackgroundImageFix"/>
<feColorMatrix in="SourceAlpha" type="matrix" values="0 0 0 0 0 0 0 0 0 0 0 0 0 0 0 0 0 0 127 0" result="hardAlpha"/>
<feOffset dy="2"/>
<feGaussianBlur stdDeviation="4"/>
<feComposite in2="hardAlpha" operator="out"/>
<feColorMatrix type="matrix" values="0 0 0 0 0 0 0 0 0 0 0 0 0 0 0 0 0 0 0.2 0"/>
<feBlend mode="normal" in2="BackgroundImageFix" result="effect1_dropShadow_4892_22487"/>
<feBlend mode="normal" in="SourceGraphic" in2="effect1_dropShadow_4892_22487" result="shape"/>
</filter>
<linearGradient id="paint0_linear_4892_22487" x1="55.4671" y1="40.5215" x2="55.4671" y2="49.1519" gradientUnits="userSpaceOnUse">
<stop stop-color="#008E3F"/>
<stop offset="1" stop-color="#008E3F" stop-opacity="0"/>
</linearGradient>
<linearGradient id="paint1_linear_4892_22487" x1="38.2068" y1="40.5215" x2="38.2068" y2="49.1519" gradientUnits="userSpaceOnUse">
<stop stop-color="#008E3F"/>
<stop offset="1" stop-color="#008E3F" stop-opacity="0"/>
</linearGradient>
</defs>
</svg>
