<svg width="32" height="32" viewBox="0 0 32 32" fill="none" xmlns="http://www.w3.org/2000/svg">
<path d="M3.2002 28.8L3.20073 23.9995C3.20103 21.3487 5.34998 19.2 8.00073 19.2H16.0003M26.4941 25.261L29.3337 28.8M19.2002 8.00001C19.2002 10.651 17.0512 12.8 14.4002 12.8C11.7492 12.8 9.60019 10.651 9.60019 8.00001C9.60019 5.34904 11.7492 3.20001 14.4002 3.20001C17.0512 3.20001 19.2002 5.34904 19.2002 8.00001ZM28.0003 22.1333C28.0003 24.3425 26.2095 26.1333 24.0003 26.1333C21.7912 26.1333 20.0003 24.3425 20.0003 22.1333C20.0003 19.9242 21.7912 18.1333 24.0003 18.1333C26.2095 18.1333 28.0003 19.9242 28.0003 22.1333Z" stroke="white" stroke-width="2" stroke-linecap="round" stroke-linejoin="round"/>
</svg>
