<svg width="54" height="54" viewBox="0 0 54 54" fill="none" xmlns="http://www.w3.org/2000/svg">
<g filter="url(#filter0_i_3718_5184)">
<circle cx="27" cy="27" r="27" fill="url(#paint0_linear_3718_5184)"/>
</g>
<mask id="mask0_3718_5184" style="mask-type:alpha" maskUnits="userSpaceOnUse" x="0" y="0" width="54" height="54">
<circle cx="27" cy="27" r="27" fill="#00C5D1"/>
</mask>
<g mask="url(#mask0_3718_5184)">
<path d="M45.5616 41.3662C44.855 40.1277 38.0341 38.3986 34.5921 37.267C33.6724 36.9663 32.9935 36.7052 32.7369 36.5113C32.7053 36.4876 32.6777 36.4638 32.6619 36.4401C32.3145 36.0286 32.1645 34.9563 32.0974 33.9394C33.4592 32.4082 34.3276 30.4892 34.8211 29.0925C35.0184 28.5385 35.1605 27.9688 35.2513 27.3871C36.3408 27.122 36.6881 25.9232 36.5223 25.385C36.3368 24.7757 36.6092 24.2772 36.6092 23.2484C36.6092 22.92 36.471 22.734 36.2855 22.6312C36.3052 21.919 36.3052 21.2463 36.3052 21.2463L36.5144 21.6222C36.5579 20.4906 36.3487 19.5054 36.3487 19.5054L36.7236 19.9644C36.7039 19.0424 36.325 17.891 36.325 17.891L36.7829 18.4133C36.7197 17.7842 36.0526 16.067 36.0526 16.067L36.3644 16.3796C36.0723 15.4379 35.425 14.3498 35.425 14.3498L35.7605 14.6228C35.3026 13.0955 33.9842 12.4664 33.9842 12.4664L34.4855 12.4862C33.6724 11.4812 32.0422 10.9352 32.0422 10.9352L32.5632 10.8916C31.9159 10.1794 30.2462 9.78375 30.2462 9.78375L30.8935 9.76397C29.9541 9.26147 28.3238 9.63735 28.3238 9.63735L28.8251 9.38412C27.0923 9.25751 25.9831 9.80354 25.9831 9.80354L26.7568 9.28125C23.4766 9.49096 22.5569 11.1646 22.5569 11.1646L22.8924 10.4524C20.7806 11.0182 20.8674 13.1549 20.8674 13.1549C20.8674 13.1549 20.2003 13.0718 18.653 15.0383C17.4254 16.6012 17.8556 20.8467 18.0885 22.5362C17.8517 22.6153 17.6662 22.7974 17.6662 23.1693C17.6662 24.198 18.0096 24.7678 17.8241 25.3771C17.6385 25.9865 18.1043 27.4346 19.549 27.4346C19.5609 27.4346 19.5727 27.4346 19.5845 27.4346C19.6753 27.9965 19.8174 28.5504 20.0069 29.0885C20.5043 30.4892 21.3766 32.4201 22.7503 33.9553C22.6871 34.9128 22.549 35.9138 22.2411 36.3649C22.2253 36.3886 22.2095 36.4124 22.1898 36.4361C22.0358 36.6181 21.4279 36.8674 20.5477 37.1642C17.2162 38.2918 10.0124 40.0842 9.28609 41.3583C8.36637 42.9686 5.0625 57.375 5.0625 57.375H49.7812C49.7812 57.375 46.4734 42.9686 45.5577 41.3583L45.5616 41.3662Z" fill="#3A3938" fill-opacity="0.8"/>
</g>
<defs>
<filter id="filter0_i_3718_5184" x="0" y="0" width="54" height="56" filterUnits="userSpaceOnUse" color-interpolation-filters="sRGB">
<feFlood flood-opacity="0" result="BackgroundImageFix"/>
<feBlend mode="normal" in="SourceGraphic" in2="BackgroundImageFix" result="shape"/>
<feColorMatrix in="SourceAlpha" type="matrix" values="0 0 0 0 0 0 0 0 0 0 0 0 0 0 0 0 0 0 127 0" result="hardAlpha"/>
<feOffset dy="2"/>
<feGaussianBlur stdDeviation="2"/>
<feComposite in2="hardAlpha" operator="arithmetic" k2="-1" k3="1"/>
<feColorMatrix type="matrix" values="0 0 0 0 0 0 0 0 0 0 0 0 0 0 0 0 0 0 0.15 0"/>
<feBlend mode="normal" in2="shape" result="effect1_innerShadow_3718_5184"/>
</filter>
<linearGradient id="paint0_linear_3718_5184" x1="27" y1="0" x2="27" y2="54" gradientUnits="userSpaceOnUse">
<stop stop-color="#95FEAC"/>
<stop offset="1" stop-color="#0676A6"/>
</linearGradient>
</defs>
</svg>
