<svg width="20" height="20" viewBox="0 0 20 20" fill="none" xmlns="http://www.w3.org/2000/svg">
<path d="M1.45 17.44C1.72 17.56 2.04 17.5 2.26 17.3L9.53 10.48L9.53 16.75C9.53 17.05 9.71 17.32 9.98 17.44C10.25 17.56 10.57 17.5 10.79 17.3L18.26 10.3C18.41 10.16 18.5 9.96002 18.5 9.75002C18.5 9.54002 18.41 9.34002 18.26 9.20002L10.79 2.20002C10.65 2.07002 10.46 2.00002 10.28 2.00002C10.18 2.00002 10.08 2.02001 9.98 2.06001C9.71 2.18001 9.53 2.45002 9.53 2.75002L9.53 9.02002L2.26 2.20002C2.12 2.07002 1.93 2.00001 1.75 2.00001C1.65 2.00001 1.55 2.02001 1.45 2.06001C1.18 2.18001 1 2.45001 1 2.75001L1 16.75C1 17.05 1.18 17.32 1.45 17.44ZM11.03 4.48002L16.65 9.75002L11.03 15.02L11.03 4.48002ZM2.5 4.48001L8.12 9.75002L2.5 15.02L2.5 4.48001Z" fill="white" fill-opacity="0.3"/>
</svg>
