<svg width="20" height="20" viewBox="0 0 20 20" fill="none" xmlns="http://www.w3.org/2000/svg">
<path d="M5.75 2.99996C5.9124 2.99923 6.07052 3.05194 6.2 3.14996L14.2 9.14996C14.2931 9.21982 14.3688 9.31041 14.4208 9.41455C14.4729 9.51869 14.5 9.63353 14.5 9.74996C14.5 9.8664 14.4729 9.98123 14.4208 10.0854C14.3687 10.1895 14.2931 10.2801 14.2 10.35L6.2 16.35C6.08802 16.4343 5.95465 16.4856 5.81501 16.4979C5.67537 16.5103 5.53506 16.4833 5.41 16.42C5.28712 16.3562 5.18399 16.2601 5.11173 16.142C5.03947 16.024 5.00084 15.8884 5 15.75L5 3.74996C5.00084 3.61153 5.03948 3.47596 5.11173 3.35789C5.18399 3.23981 5.28712 3.14371 5.41 3.07996C5.51648 3.02977 5.63231 3.00251 5.75 2.99996ZM12.5 9.74996L6.5 5.24996L6.5 14.25L12.5 9.74996Z" fill="white" fill-opacity="0.3"/>
</svg>
