<svg width="20" height="20" viewBox="0 0 20 20" fill="none" xmlns="http://www.w3.org/2000/svg">
<path d="M13.75 16.5009C13.5876 16.5016 13.4295 16.4489 13.3 16.3509L5.3 10.3509C5.20685 10.281 5.13125 10.1904 5.07918 10.0863C5.02711 9.98216 5 9.86733 5 9.75089C5 9.63446 5.02711 9.51962 5.07918 9.41548C5.13125 9.31134 5.20685 9.22075 5.3 9.15089L13.3 3.15089C13.412 3.06656 13.5454 3.0153 13.685 3.00293C13.8246 2.99055 13.9649 3.01756 14.09 3.08089C14.2129 3.14464 14.316 3.24074 14.3883 3.35882C14.4605 3.47689 14.4992 3.61246 14.5 3.75089V15.7509C14.4992 15.8893 14.4605 16.0249 14.3883 16.143C14.316 16.261 14.2129 16.3571 14.09 16.4209C13.9835 16.4711 13.8677 16.4983 13.75 16.5009ZM7 9.75089L13 14.2509V5.25089L7 9.75089Z" fill="white" fill-opacity="0.3"/>
</svg>
