<svg width="20" height="20" viewBox="0 0 20 20" fill="none" xmlns="http://www.w3.org/2000/svg">
<path d="M18.05 2.06157C17.78 1.94157 17.46 2.00157 17.24 2.20157L9.97 9.02157V2.75157C9.97 2.45157 9.79 2.18157 9.52 2.06157C9.25 1.94157 8.93 2.00157 8.71 2.20157L1.24 9.20157C1.09 9.34157 1 9.54157 1 9.75157C1 9.96157 1.09 10.1616 1.24 10.3016L8.71 17.3016C8.85 17.4316 9.04 17.5016 9.22 17.5016C9.32 17.5016 9.42 17.4816 9.52 17.4416C9.79 17.3216 9.97 17.0516 9.97 16.7516V10.4816L17.24 17.3016C17.38 17.4316 17.57 17.5016 17.75 17.5016C17.85 17.5016 17.95 17.4816 18.05 17.4416C18.32 17.3216 18.5 17.0516 18.5 16.7516V2.75157C18.5 2.45157 18.32 2.18157 18.05 2.06157ZM8.47 15.0216L2.85 9.75157L8.47 4.48157V15.0216ZM17 15.0216L11.38 9.75157L17 4.48157V15.0216Z" fill="white" fill-opacity="0.3"/>
</svg>
