<svg width="154" height="38" viewBox="0 0 154 38" fill="none" xmlns="http://www.w3.org/2000/svg">
<path fill-rule="evenodd" clip-rule="evenodd" d="M5.82591 10.0173V1.96316H9.10709V0.643799H0.824219V1.96316H4.1054V10.0173H5.82591ZM12.9152 2.26459H12.9152L12.9058 2.29046C12.5109 2.29046 12.1537 2.3077 11.834 2.3422C11.5049 2.37669 11.2323 2.41118 10.9973 2.44568L10.896 2.46547C10.6732 2.50891 10.4709 2.54838 10.2827 2.6009L10.4238 3.8254C10.6315 3.79364 10.919 3.76919 11.2789 3.73858L11.279 3.73858L11.279 3.73858L11.279 3.73858L11.3733 3.73055C11.7776 3.69605 12.2947 3.67881 12.9152 3.67881C13.4041 3.67881 13.7801 3.72192 14.0434 3.80815C14.316 3.88576 14.5041 3.98924 14.6263 4.10135C14.7485 4.21345 14.8237 4.33418 14.8425 4.4549C14.8613 4.57563 14.8707 4.67911 14.8707 4.76534V5.36897C14.5699 5.29136 14.2408 5.231 13.8742 5.17064C13.5075 5.11027 13.1126 5.08441 12.6802 5.08441C12.5015 5.08441 12.3041 5.09303 12.0596 5.11027C11.8246 5.12752 11.5802 5.17064 11.3169 5.231C11.0631 5.29136 10.7998 5.3776 10.546 5.48108C10.2921 5.59318 10.0665 5.73977 9.86906 5.92086C9.67162 6.10195 9.51179 6.32616 9.38957 6.59348C9.26735 6.8608 9.21094 7.18849 9.21094 7.55929C9.21094 7.93009 9.26735 8.25778 9.38957 8.5251C9.51179 8.79242 9.67162 9.01663 9.86906 9.19772C10.0665 9.38743 10.2921 9.53402 10.546 9.6375C10.7998 9.74098 11.0537 9.82722 11.3169 9.88758C11.5708 9.94794 11.8246 9.99106 12.0596 10.0083C12.3041 10.0255 12.5109 10.0342 12.6802 10.0342C13.4041 10.0342 14.0434 9.96519 14.5793 9.8186C15.1152 9.672 15.5477 9.54265 15.8861 9.43054L16.3938 9.27532V4.74809C16.3938 4.37729 16.3374 4.04961 16.2152 3.78229C16.093 3.50634 15.9331 3.28213 15.7263 3.10104C15.5289 2.91133 15.2938 2.76474 15.0494 2.66126C14.8049 2.55778 14.5511 2.47154 14.2878 2.41118C14.0246 2.35082 13.7708 2.3077 13.5357 2.29046C13.2913 2.26459 13.0844 2.26459 12.9152 2.26459ZM14.0152 8.57684C13.6579 8.6372 13.2066 8.6717 12.6802 8.6717V8.68032C12.1913 8.68032 11.8152 8.6372 11.552 8.55959C11.2793 8.47336 11.0913 8.3785 10.9691 8.2664C10.8468 8.1543 10.7716 8.03357 10.7528 7.91285C10.7246 7.79212 10.7246 7.68865 10.7246 7.60242V7.60241C10.7246 7.51617 10.734 7.41269 10.7528 7.29197C10.7716 7.17124 10.8468 7.05052 10.9691 6.93841C11.0913 6.81769 11.2887 6.72283 11.552 6.6366C11.8152 6.55037 12.1913 6.50725 12.6802 6.50725C13.2066 6.50725 13.6485 6.54174 14.0152 6.61073C14.3725 6.67109 14.6545 6.74008 14.8613 6.81769V8.36988C14.6545 8.43887 14.3725 8.50785 14.0152 8.57684ZM49.2034 31.8342V37.9137H48.4325V31.8342H47.4453V31.1099H48.4325V29.9802H49.2034V31.1099H50.1718V31.8342H49.2034ZM7.61026 37.8968C8.61623 36.9914 9.11452 36.0083 9.11452 34.3785V29.9979H8.31538V31.6085C8.10917 31.4659 7.89836 31.2906 7.65003 31.0673V31.0588H7.64062L7.65003 31.0673V31.9557C7.87774 32.1558 8.09349 32.3143 8.31538 32.4487V33.5898C7.87532 34.0162 7.58339 34.2896 7.15003 34.5248H7.14062V35.3785C7.54943 35.1506 7.82838 34.9227 8.1989 34.62L8.19895 34.6199L8.31142 34.5281C8.25727 35.9985 7.64707 36.9594 6.47266 37.8968H7.61026ZM22.7019 37.0083C22.7019 37.2497 22.6173 37.4395 22.4574 37.5947C22.2788 37.7671 22.0438 37.862 21.7429 37.862H16.2053C15.8669 37.862 15.613 37.7671 15.425 37.5688C15.2464 37.3963 15.1523 37.1635 15.1523 36.8789V30.9202C15.1523 30.6874 15.2464 30.4805 15.425 30.2994C15.6036 30.1355 15.8105 30.0579 16.0361 30.0579H21.7899C22.0626 30.0579 22.2882 30.1528 22.4574 30.3511C22.6267 30.5408 22.7019 30.765 22.7019 31.041V37.0083ZM21.8839 30.9892C21.8839 30.9202 21.8463 30.8426 21.7711 30.7736C21.6959 30.7047 21.4985 30.6615 21.4139 30.6615H19.8156V31.0494H21.6301V31.584H19.8156V31.9635H21.8746V32.5154H17.0703V31.9635H19.0259V31.584H17.3242V31.0494H19.0259V30.6615H16.3182C16.2335 30.6615 16.1583 30.696 16.0831 30.7736C16.0173 30.8426 15.9797 30.9202 15.9797 30.9806V36.9048C15.9797 36.9997 16.0173 37.0773 16.1019 37.1376C16.1771 37.2066 16.2711 37.2411 16.3652 37.2411H21.5267C21.7617 37.2411 21.8839 37.1204 21.8839 36.8876V30.9892ZM20.8195 34.5163H18.7709V36.129C18.7709 36.336 18.8931 36.4136 19.147 36.4136H19.7581L19.5606 37.0258H18.9025C18.2256 37.0258 18.0282 36.655 18.0282 36.0514V35.1632C17.7555 35.7582 17.1256 36.5947 16.6367 37.0345V36.1463C17.0421 35.6392 17.4926 34.9417 17.6432 34.5163H17.0118C16.8802 34.5077 16.7767 34.456 16.7015 34.3611C16.6169 34.2663 16.5699 34.1369 16.5793 33.9989V33.2573C16.5699 33.1366 16.6169 33.0331 16.7015 32.9469C16.7767 32.8607 16.8896 32.8175 17.0118 32.8175H20.8195C20.9699 32.8089 21.0921 32.852 21.1955 32.9555C21.2801 33.0331 21.3272 33.128 21.3366 33.2573V33.9989C21.3366 34.1369 21.2801 34.2576 21.1673 34.3611C21.0733 34.4646 20.9605 34.5077 20.8195 34.5163ZM20.6502 33.6712C20.6502 33.8696 20.6314 33.9213 20.4058 33.9213H17.5007C17.275 33.9213 17.2468 33.8351 17.2468 33.6712V33.5505C17.2468 33.3988 17.2889 33.4015 17.4019 33.4087C17.4302 33.4105 17.463 33.4125 17.5007 33.4125H20.4058L20.4403 33.4124L20.462 33.4122C20.6197 33.4108 20.6502 33.4105 20.6502 33.5505V33.6712ZM12.0847 37.8969H11.2761C9.99749 37.8969 9.78125 37.1208 9.78125 36.3964V29.9979H10.571V33.5803C11.0006 33.9353 11.4674 34.2458 11.8634 34.4984V35.3379C11.769 35.2812 11.6817 35.2297 11.599 35.1809L11.5989 35.1809C11.238 34.968 10.9636 34.8062 10.571 34.4925V36.2929C10.571 36.7758 10.759 37.207 11.3325 37.207H12.3385L12.1035 37.8969H12.0847ZM11.8634 35.3379L11.8728 35.3435L11.8634 35.3521V35.3379ZM59.771 34.8339V32.2986V32.2814H60.8334V31.6088H59.771V30.1169H58.9248V31.6088H57.9V32.2814H58.9248V35.1961C58.577 35.3685 58.2291 35.5065 57.8906 35.6186V36.3861C58.765 36.067 59.5735 35.7048 60.7863 35.0581V34.3165C60.194 34.6356 60.006 34.7304 59.771 34.8339ZM60.2227 36.7246C60.8996 36.0089 61.1628 34.6637 61.2192 33.9652C61.2756 33.2495 61.9902 33.3357 61.9902 33.3357H65.9483V33.9997H62.009C62.009 33.9997 61.9954 34.1473 61.9532 34.3869H65.3843C65.6288 34.3869 65.9485 34.6283 65.9485 34.9819V36.6031C65.9485 37.5861 65.2809 37.8879 64.5664 37.8879H64.3784L64.1715 37.224H64.4818C64.8485 37.224 65.1399 37.0687 65.1399 36.6203V36.5341V35.232C65.1399 35.1026 65.0271 34.9646 64.8673 34.9646H64.5852C64.416 35.9218 63.9741 37.1981 63.5228 37.8362H62.6391C63.1374 37.1722 63.645 35.8615 63.8049 34.9646H63.1938C62.9023 35.9908 62.4604 37.224 61.8775 37.8362H60.9844C61.7177 37.0429 62.2348 35.8442 62.404 34.9646H61.8282C61.612 35.8068 61.1552 36.9959 60.2227 37.6646V36.7246ZM61.9808 32.9563C61.8491 32.9476 61.7363 32.8959 61.6517 32.801C61.5577 32.6803 61.5107 32.5423 61.5201 32.4044V30.5331C61.5201 30.4038 61.5577 30.3003 61.6517 30.2054C61.7457 30.1106 61.8491 30.0588 61.9808 30.0588H65.1491C65.3089 30.0502 65.45 30.102 65.5628 30.2054C65.6568 30.2744 65.7038 30.3951 65.7132 30.5331V32.4044C65.7132 32.551 65.6474 32.6803 65.5252 32.7924C65.4218 32.8873 65.2995 32.9476 65.1491 32.9563H61.9808ZM64.9705 31.1885V30.947C64.9705 30.8781 64.9517 30.8004 64.9141 30.7573C64.8671 30.7056 64.7919 30.6797 64.7072 30.6797H62.5355C62.432 30.6797 62.3568 30.697 62.338 30.7401C62.291 30.7918 62.2628 30.8694 62.2722 30.947V31.1885H64.9705ZM62.2628 31.818V32.0681C62.2628 32.1371 62.2816 32.2147 62.3286 32.2578C62.3662 32.3009 62.4414 32.3268 62.5261 32.3268H64.6978C64.7825 32.3268 64.8577 32.3009 64.8953 32.2578C64.9329 32.2147 64.9517 32.1457 64.9611 32.0681V31.818H62.2628ZM10.9885 32.7411C11.5912 32.4571 11.9279 32.2985 12.3589 31.9197H12.3683V30.9797C11.7008 31.5144 11.3529 31.6955 10.8828 31.9024L10.9016 32.782L10.9885 32.7411ZM4.46526 37.0425C4.75671 35.6714 4.95415 34.145 5.06697 32.3686H4.41825C4.33363 33.9295 4.11739 35.4558 3.76953 37.0425H4.46526ZM5.9378 31.7917V37.897H5.16687V31.7917H4.17969V31.0759H5.16687V30.0066H5.9378V31.0759H6.90617V31.7917H5.9378ZM6.51537 36.6803H7.17349C7.1629 36.6186 7.15091 36.5499 7.13782 36.4748C6.98815 35.6169 6.694 33.9308 6.694 32.3687H6.05469C6.08289 33.5069 6.15811 34.5245 6.51537 36.6803ZM53.422 34.0764C53.422 34.009 53.4226 33.9436 53.4231 33.8805C53.4236 33.82 53.4241 33.7616 53.4241 33.7056H52.625C52.625 33.817 52.627 33.9416 52.6335 34.0764H51.0407C50.7868 34.0764 50.5706 34.2575 50.5706 34.5507V35.8528C50.5706 36.2063 50.392 36.8444 49.9219 37.1549H49.9407V38C50.8014 37.6668 51.2111 36.8775 51.3202 36.2143L52.3229 36.6024V35.8867L51.3509 35.5046V34.7749H52.7048C52.7871 35.2833 52.9504 35.8506 53.27 36.3861C52.872 36.666 52.4449 36.9071 52 37.0854V37.9046C52.5326 37.6758 53.1461 37.3211 53.6779 36.9461C54.0218 37.3365 54.477 37.6877 55.0788 37.9569V37.1894C54.7285 36.9814 54.452 36.7558 54.2337 36.5207C54.495 36.3016 54.7076 36.089 54.8393 35.904V34.9296C54.5455 35.2841 54.2025 35.6357 53.8227 35.958C53.6008 35.5607 53.5006 35.1548 53.4561 34.7749H54.6415C54.98 34.7749 55.2338 34.5334 55.0834 34.1712V34.154L54.9048 33.7056H54.1526L54.2936 34.0764H53.422ZM53.0225 31.2994C52.9755 31.1873 52.8156 31.1184 52.7028 31.1184H52.0259L52.9661 30.0491H52.0447L51.0669 31.1529C50.9729 31.2477 50.9353 31.3943 51.0011 31.515C51.0575 31.6358 51.1892 31.6789 51.3302 31.6789H52.0071L50.8977 32.7999C50.7849 32.8948 50.7661 33.0586 50.8131 33.1793C50.8695 33.3087 51.0387 33.3863 51.1892 33.3863H52.9003L53.0883 32.7654H51.8755C51.8755 32.7654 52.7592 31.8858 52.9191 31.7392C53.0789 31.5926 53.0883 31.4202 53.0319 31.2994H53.0225ZM55.1231 31.1184C55.2453 31.1184 55.4052 31.1873 55.4522 31.2994H55.4616C55.518 31.4202 55.5086 31.5926 55.3488 31.7392C55.1889 31.8858 54.3052 32.7654 54.3052 32.7654H55.6214L55.4334 33.3863H53.6188C53.4684 33.3863 53.2992 33.3087 53.2428 33.1793C53.1958 33.0586 53.2146 32.8948 53.3274 32.7999L54.4368 31.6789H53.7505C53.6094 31.6789 53.4778 31.6358 53.4214 31.515C53.365 31.3943 53.3932 31.2477 53.4872 31.1529L54.465 30.0491H55.3864L54.4462 31.1184H55.1231ZM47.727 37.0589C48.0184 35.6791 48.2159 34.1614 48.3287 32.4023H47.68C47.5954 33.9459 47.3791 35.4722 47.0312 37.0589H47.727ZM49.6925 36.2655H50.3506C50.3434 36.2127 50.3292 36.1249 50.3102 36.008L50.3102 36.0075C50.2052 35.3595 49.9557 33.819 49.9557 32.4023H49.3164C49.354 33.5233 49.4292 34.5322 49.6925 36.2655ZM20.6176 37.008C20.1382 36.5768 19.5459 35.8697 19.4518 35.4817C19.3296 34.9988 19.7339 34.7659 20.157 34.7659H21.2946V35.3696H20.4766C20.2886 35.3696 20.0912 35.5248 20.4484 35.9042C20.465 35.9225 20.4863 35.9463 20.5117 35.9749C20.7024 36.1888 21.1264 36.6646 21.5578 36.9994H20.6176V37.008ZM29.8479 35.8519V36.5935C30.2769 36.3918 30.6363 36.1214 30.9377 35.7997C31.1808 36.2505 31.4401 36.6498 31.7 37.0074H32.5744C32.153 36.3633 31.7783 35.747 31.4634 35.0982C31.8869 34.3935 32.139 33.5534 32.2923 32.6871H31.559C31.4913 33.0773 31.3665 33.6499 31.0937 34.2443C30.8588 33.6261 30.6767 32.9607 30.5573 32.2042H31.8129C32.1607 32.2042 32.4146 31.9886 32.3487 31.6954C32.3017 31.5143 32.1795 30.9711 32.1795 30.9711H31.3992C31.3992 30.9711 31.465 31.3419 31.5026 31.4885H30.466C30.4396 31.2216 30.4203 30.9435 30.4083 30.6527H32.2225C32.3165 30.6527 32.5139 30.6958 32.5891 30.7648C32.6643 30.8338 32.7019 30.9114 32.7019 30.9804H32.6925V36.8787C32.6925 37.1115 32.5797 37.2323 32.3447 37.2323H27.1832C27.0797 37.2323 26.9857 37.1978 26.9105 37.1288C26.8259 37.0684 26.7883 36.9908 26.7883 36.896V30.9718C26.7883 30.9028 26.8259 30.8338 26.8917 30.7648C26.9669 30.6872 27.0421 30.6527 27.1267 30.6527H29.6187C29.631 30.9411 29.6507 31.2195 29.6771 31.4885H27.2907V32.1956L27.2812 32.2042H29.7663C29.9385 33.3386 30.2346 34.2882 30.5915 35.0936C30.3885 35.3638 30.1437 35.622 29.8479 35.8519ZM27.2812 37.0074C28.353 36.9557 29.0018 36.8435 29.5941 36.6711V36.6625V35.964C28.8325 36.1796 28.1838 36.2744 27.2812 36.283V37.0074ZM44.2126 34.5159V35.2403H42.1725V36.7062C42.1725 37.4133 41.7964 37.9221 41.1101 37.9221C40.9972 37.9221 40.3767 37.9135 40.3767 37.9135L40.2169 37.2409H40.875C41.1853 37.2409 41.3451 37.146 41.3451 36.7062V35.2403H39.4742V34.5159H44.2126ZM44.222 33.1879C44.0411 33.0941 43.7965 32.9312 43.5299 32.7222C43.801 32.1991 44.0466 31.4158 44.0716 31.1183C44.1374 30.4112 43.8742 30.1439 43.4605 30.0921H42.3605V30.7561H42.9716C43.1972 30.7561 43.4135 30.8682 43.3101 31.2649C43.2301 31.551 43.1229 31.8371 42.9191 32.1922C42.5948 31.8817 42.2825 31.5313 42.0496 31.1781L42.0878 31.0838C42.1255 30.9372 42.1443 30.8079 42.1443 30.6613C42.1255 30.3422 41.8998 30.1525 41.4767 30.1008H40.0853C39.9913 30.5664 39.7186 31.0148 39.352 31.3167V32.1531C39.8314 31.8944 40.452 31.3856 40.6212 30.7389H41.1665C41.2511 30.7389 41.3075 30.7993 41.3075 30.8855C41.3027 30.9862 41.2856 31.0857 41.2582 31.1837L40.8195 30.7742L40.5469 31.3347L40.9865 31.7451C40.8963 31.8774 40.7916 32.005 40.6779 32.1268L40.1382 31.6274L39.875 32.188L40.245 32.5334C39.9332 32.7943 39.6077 33.0122 39.352 33.1707V34.0589C39.5762 33.9234 39.7853 33.7906 39.9805 33.6578V34.0761H43.5625V33.6446C43.777 33.7944 43.9977 33.9341 44.222 34.0589V33.1879ZM40.9374 33.1796L40.786 33.0383C40.6729 33.1387 40.5536 33.2372 40.4276 33.3345H43.1452C42.6155 32.9176 42.1386 32.4526 41.7592 32.0181L41.6093 32.3264L41.5198 32.2429C41.4226 32.3744 41.3191 32.5003 41.2087 32.622L40.9374 33.1796ZM43.5733 35.5507C43.5921 36.0164 43.8083 36.4044 44.2126 36.7148V37.6289C43.4323 37.215 42.9528 36.5338 42.793 35.5593H43.5733V35.5507ZM40.6306 35.5507C40.4614 36.5251 39.9913 37.2064 39.2109 37.6203V36.7062C39.6152 36.3958 39.8314 36.0164 39.8503 35.5421H40.6306V35.5507ZM33.266 37.5772C33.4353 37.4306 33.5199 37.2323 33.5199 36.9994V31.0321C33.5199 30.7648 33.4353 30.532 33.266 30.3423C33.0968 30.1439 32.8806 30.0491 32.5985 30.0491H26.8447C26.6191 30.0491 26.4122 30.1267 26.2336 30.2905C26.055 30.4716 25.9609 30.67 25.9609 30.9114V36.8615C25.9609 37.146 26.055 37.3789 26.2336 37.5513C26.4216 37.7497 26.6849 37.8445 27.0139 37.8445H32.5515C32.8524 37.8445 33.0874 37.7497 33.266 37.5772ZM29.348 32.7822C29.2258 32.6787 29.0754 32.627 28.8779 32.627H28.013C27.8156 32.627 27.6369 32.6873 27.5053 32.808C27.3643 32.9374 27.2891 33.084 27.2891 33.2565V34.938C27.2891 35.1018 27.3361 35.2484 27.4395 35.3778C27.5805 35.5503 27.7403 35.6365 27.9284 35.6365H28.8027C29.066 35.6365 29.2634 35.5675 29.4044 35.4295C29.5361 35.3088 29.6019 35.1363 29.6019 34.9207V33.3168C29.6019 33.0926 29.5173 32.9115 29.3574 32.7822H29.348ZM28.8967 34.9121C28.8967 35.0329 28.8403 35.0932 28.7181 35.0932H28.1916C28.1916 35.0932 28.107 35.0673 28.0694 35.0242C28.0224 34.9725 28.0036 34.9207 28.0036 34.869V33.3858C28.0036 33.2478 28.0788 33.1702 28.2386 33.1702H28.7181C28.7181 33.1702 28.8027 33.1875 28.8497 33.2306C28.8873 33.2737 28.9062 33.3254 28.9062 33.3599V34.9035L28.8967 34.9121ZM38.8247 35.8176C38.6555 35.9383 38.4957 35.9901 38.2512 35.9901H37.5367V37.8613H36.7188V30.7299C36.7188 30.5143 36.8034 30.3418 36.9538 30.2038C37.0854 30.0917 37.264 30.0314 37.4709 30.0314H38.4769C38.7025 30.0314 38.8811 30.1004 39.0222 30.247C39.1726 30.4022 39.2196 30.5833 39.1632 30.8075L39.1494 30.8664L39.1493 30.8665L39.1493 30.8665L39.1493 30.8666L39.1493 30.8666L39.1493 30.8667L39.1493 30.8667C38.9956 31.5224 38.8635 32.0856 38.5897 32.7218C39.2384 33.8429 39.3324 34.6017 39.1726 35.3175C39.1256 35.5158 39.0034 35.6796 38.8153 35.8004L38.8247 35.8176ZM37.5367 35.3347H37.9598C38.1102 35.3347 38.223 35.3088 38.2982 35.2485C38.3828 35.1881 38.4299 35.0933 38.4487 34.9725C38.5521 34.3516 38.411 33.7221 37.7623 32.7736C38.0237 32.1709 38.1427 31.6824 38.256 31.2174L38.256 31.2173L38.2561 31.2171L38.2562 31.2166L38.2562 31.2165L38.2562 31.2164L38.2563 31.2163C38.2855 31.0962 38.3144 30.9777 38.3452 30.8592C38.3734 30.7471 38.3264 30.6954 38.223 30.6954H37.7059C37.5931 30.6954 37.5367 30.7557 37.5367 30.8765V35.3347ZM21.5133 2.26459C21.6167 2.26459 21.7766 2.26459 21.9928 2.28183C22.209 2.29046 22.4535 2.33357 22.7261 2.41118C22.9988 2.48879 23.2714 2.6009 23.5535 2.75611C23.8355 2.91133 24.0894 3.13554 24.315 3.42011C24.5406 3.70468 24.7287 4.07548 24.8791 4.52389C25.0295 4.9723 25.0953 5.51557 25.0953 6.17094C25.0953 6.82631 25.0201 7.36958 24.8791 7.80937C24.7287 8.25778 24.5406 8.61996 24.315 8.91315C24.0894 9.19772 23.8355 9.42192 23.5535 9.57714C23.2714 9.73236 22.9988 9.84446 22.7261 9.91345C22.4535 9.98243 22.209 10.0256 21.9928 10.0342C21.9321 10.0366 21.8758 10.039 21.824 10.0413L21.8237 10.0413C21.6911 10.047 21.5876 10.0514 21.5133 10.0514H21.5133C21.4004 10.0514 21.2406 10.0514 21.0244 10.0342C20.8082 10.0256 20.5731 9.98243 20.3005 9.91345C20.0278 9.84446 19.7552 9.73236 19.4732 9.57714C19.1911 9.42192 18.9373 9.19772 18.7116 8.91315C18.4766 8.62858 18.2979 8.25778 18.1475 7.80937C17.9971 7.36096 17.9219 6.81769 17.9219 6.17094C17.9219 5.52419 17.9971 4.9723 18.1475 4.52389C18.2979 4.07548 18.486 3.7133 18.7116 3.42011C18.9467 3.13554 19.1911 2.91133 19.4732 2.75611C19.7552 2.6009 20.0278 2.48879 20.3005 2.41118C20.5731 2.33357 20.8082 2.29046 21.0244 2.28183C21.0824 2.27952 21.1363 2.27721 21.1863 2.27507C21.3229 2.26921 21.4307 2.26459 21.5133 2.26459ZM21.5133 8.64583C21.6919 8.64583 21.9082 8.62858 22.1432 8.58546C22.3783 8.54235 22.6039 8.43887 22.8107 8.2664C23.027 8.10256 23.2056 7.85248 23.356 7.51618C23.5065 7.18849 23.5817 6.73146 23.5817 6.16232C23.5817 5.59318 23.5065 5.13614 23.356 4.79984C23.2056 4.46353 23.027 4.21345 22.8107 4.04098C22.5945 3.86852 22.3783 3.76504 22.1432 3.72192C21.9082 3.67881 21.7013 3.66156 21.5133 3.66156C21.3441 3.66156 21.1372 3.68743 20.9022 3.72192C20.6672 3.76504 20.4415 3.86852 20.2347 4.04098C20.0184 4.21345 19.8398 4.46353 19.6894 4.79984C19.539 5.13614 19.4637 5.59318 19.4637 6.16232C19.4637 6.73146 19.539 7.18849 19.6894 7.51618C19.8398 7.84386 20.0184 8.09394 20.2347 8.2664C20.4509 8.43887 20.6766 8.54235 20.9022 8.58546C21.1372 8.62858 21.3441 8.64583 21.5133 8.64583ZM33.7174 2.48006L33.7208 2.47143V2.48006H33.7174ZM32.2071 2.48006H33.7174L30.5149 10.586C30.214 11.3362 29.8473 11.8881 29.3961 12.2244C28.9448 12.5607 28.3525 12.7332 27.6191 12.7332H27.0738C26.914 12.7332 26.7824 12.7245 26.6696 12.7073C26.5379 12.6987 26.4251 12.6814 26.3217 12.6642L26.4909 11.6639H27.3935C27.6473 11.6639 27.873 11.6294 28.061 11.569C28.2585 11.5 28.4277 11.4052 28.5687 11.2844C28.7191 11.1551 28.8508 10.9999 28.9636 10.8102C29.0764 10.6204 29.1798 10.4049 29.2832 10.1634L29.4995 9.63739L26.1055 2.48006L27.6191 2.46281L30.1576 7.89548L32.2071 2.48006ZM36.5689 7.65405C36.6817 7.93 36.8415 8.13696 37.039 8.28356C37.2364 8.43015 37.4526 8.52501 37.7065 8.56812C37.9603 8.61124 38.2142 8.63711 38.468 8.63711C38.7219 8.63711 39.0227 8.61986 39.3236 8.58537C39.6244 8.55088 40.0099 8.46464 40.4518 8.33529V2.46283H41.9749V9.23212C41.486 9.40458 40.9313 9.57705 40.3108 9.76676C39.6902 9.94785 39.0603 10.0427 38.4116 10.0427C38.186 10.0427 37.9415 10.0341 37.6783 10.0082C37.415 9.98234 37.1518 9.93923 36.8791 9.86162C36.6159 9.78401 36.3621 9.6719 36.1176 9.51668C35.8732 9.36146 35.6569 9.15451 35.4783 8.90443C35.2997 8.65435 35.1492 8.33529 35.0364 7.95587C34.9236 7.57644 34.8672 7.11941 34.8672 6.57614V2.47145H36.3997V6.57614C36.3997 7.02455 36.4561 7.38673 36.5783 7.66268L36.5689 7.65405ZM47.9045 2.29046C47.66 2.26459 47.4532 2.26459 47.284 2.26459L47.2934 2.29046C46.8891 2.29046 46.5318 2.3077 46.2122 2.3422C45.8831 2.37669 45.6105 2.41118 45.3754 2.44568L45.2742 2.46546L45.2742 2.46547C45.0514 2.50891 44.849 2.54838 44.6609 2.6009L44.7925 3.8254C45.0003 3.79363 45.2879 3.76918 45.6478 3.73857L45.7421 3.73055C46.1464 3.69605 46.6635 3.67881 47.284 3.67881C47.7729 3.67881 48.1489 3.72192 48.4122 3.80815C48.6754 3.88576 48.8728 3.98924 48.9951 4.10135C49.1173 4.21345 49.1925 4.33418 49.2113 4.4549C49.2301 4.57563 49.2395 4.67911 49.2395 4.76534V5.36897C48.9387 5.29136 48.6096 5.231 48.2429 5.17064C47.8763 5.11027 47.4814 5.08441 47.0489 5.08441C46.8703 5.08441 46.6635 5.09303 46.4284 5.11027C46.184 5.12752 45.9395 5.17064 45.6763 5.231C45.413 5.29136 45.1592 5.3776 44.9053 5.48108C44.6515 5.59318 44.4259 5.73977 44.2284 5.92086C44.031 6.10195 43.8712 6.32616 43.7489 6.59348C43.6361 6.8608 43.5703 7.18849 43.5703 7.55929C43.5703 7.93009 43.6267 8.25778 43.7489 8.5251C43.8712 8.79242 44.031 9.01663 44.2284 9.19772C44.4259 9.38743 44.6515 9.53402 44.9053 9.6375C45.1592 9.74098 45.413 9.82722 45.6763 9.88758C45.9395 9.94794 46.1934 9.99106 46.4284 10.0083C46.6729 10.0255 46.8797 10.0342 47.0489 10.0342C47.7823 10.0342 48.4122 9.96519 48.9481 9.8186C49.484 9.672 49.9164 9.54265 50.2549 9.43054L50.7626 9.27532V4.74809C50.7626 4.37729 50.7062 4.04961 50.584 3.78229C50.4617 3.50634 50.3019 3.28213 50.0951 3.10104C49.8976 2.91133 49.672 2.76474 49.4181 2.66126C49.1737 2.55778 48.9199 2.47154 48.6566 2.41118C48.3934 2.35082 48.1395 2.3077 47.9045 2.29046ZM48.3934 8.57684C48.0361 8.6372 47.5848 8.6717 47.0583 8.6717V8.68032C46.5694 8.68032 46.1934 8.6372 45.9301 8.55959C45.6669 8.47336 45.4694 8.3785 45.3472 8.2664C45.225 8.1543 45.1498 8.03357 45.131 7.91285C45.1028 7.79214 45.1028 7.68867 45.1028 7.60244V7.60241C45.1028 7.51617 45.1122 7.41269 45.131 7.29197C45.1498 7.17124 45.225 7.05052 45.3472 6.93841C45.4694 6.81769 45.6669 6.72283 45.9301 6.6366C46.1934 6.55037 46.5694 6.50725 47.0583 6.50725C47.5848 6.50725 48.0361 6.54174 48.3934 6.61073C48.7506 6.67109 49.0327 6.74008 49.2395 6.81769V8.36988C49.0421 8.43887 48.7506 8.50785 48.3934 8.57684ZM58.1346 4.64462C58.0218 4.36867 57.862 4.16171 57.6646 4.01512C57.4671 3.86852 57.2509 3.77366 57.0064 3.73055C56.762 3.67881 56.5176 3.66156 56.2637 3.66156C55.9911 3.66156 55.662 3.67881 55.2953 3.7133C54.9193 3.74779 54.515 3.83403 54.0637 3.96337V9.83584H52.5312V3.06655C52.7757 2.98032 53.0483 2.89409 53.3492 2.79923C53.65 2.70437 53.9603 2.61814 54.2988 2.54053C54.6278 2.46292 54.9663 2.39394 55.3047 2.3422C55.6432 2.29046 55.9723 2.26459 56.2919 2.26459C56.6398 2.26459 57.0159 2.29046 57.4295 2.35082C57.8432 2.41118 58.2287 2.55778 58.5859 2.79061C58.9432 3.02344 59.244 3.36837 59.4791 3.83403C59.7235 4.29969 59.8363 4.92919 59.8363 5.73115V9.83584H58.3133V5.73115C58.3133 5.28274 58.2569 4.92056 58.1346 4.64462ZM5.77076 14.7088V24.0478H4.25709L4.23828 14.7088H5.77076ZM121.686 16.5015C121.507 16.4757 121.328 16.467 121.131 16.467L121.14 16.4757C120.755 16.4757 120.398 16.4929 120.078 16.536C119.749 16.5878 119.448 16.6481 119.147 16.7171C118.846 16.7861 118.555 16.8723 118.273 16.9672C117.981 17.062 117.69 17.1655 117.398 17.2776V24.0469H118.931V18.1744C119.128 18.0968 119.42 18.0279 119.777 17.9589C120.144 17.8985 120.595 17.864 121.131 17.864H122.457L122.598 16.6912C122.566 16.6829 122.533 16.674 122.499 16.6649C122.392 16.6363 122.277 16.6053 122.156 16.5791C122.015 16.5533 121.855 16.5274 121.686 16.5015ZM35.7677 16.4423C35.9635 16.4424 36.141 16.4511 36.3184 16.4767C36.4876 16.5026 36.6475 16.5285 36.7885 16.5544C36.9096 16.5805 37.0252 16.6116 37.1314 16.6401L37.1567 16.6469L37.2304 16.6665L37.0893 17.8392H35.7543C35.2184 17.8392 34.7671 17.8737 34.4005 17.9341C34.0338 18.0031 33.7518 18.0721 33.5543 18.1497V24.0221H32.0312V17.2442C32.3227 17.1321 32.6142 17.0286 32.9056 16.9338C33.1877 16.8389 33.4791 16.7527 33.78 16.6837C34.0808 16.6061 34.3817 16.5457 34.7107 16.5026C35.0289 16.4597 35.3843 16.4424 35.7677 16.4423ZM127.945 16.4419C127.728 16.4246 127.569 16.4246 127.456 16.4246C126.723 16.4246 126.093 16.4936 125.557 16.6402C125.021 16.7782 124.588 16.9075 124.25 17.0197L123.742 17.1921V26.5484H125.265V23.9269C125.566 24.0045 125.895 24.0735 126.262 24.1252C126.628 24.1856 127.033 24.2115 127.456 24.2115C127.498 24.2115 127.55 24.2086 127.611 24.2052L127.611 24.2052L127.611 24.2052C127.699 24.2003 127.808 24.1942 127.935 24.1942C128.152 24.1856 128.396 24.1425 128.669 24.0649C128.941 23.9873 129.214 23.8752 129.496 23.7199C129.778 23.5647 130.032 23.3405 130.258 23.056C130.483 22.7628 130.671 22.4006 130.822 21.9522C130.972 21.5124 131.047 20.9691 131.047 20.3137C131.047 19.6584 130.972 19.1151 130.822 18.6667C130.681 18.2183 130.483 17.8475 130.258 17.5629C130.032 17.2783 129.778 17.0541 129.496 16.8989C129.214 16.7437 128.941 16.6316 128.669 16.5626C128.396 16.4936 128.161 16.4505 127.945 16.4419ZM128.086 22.7283C127.851 22.7714 127.644 22.7886 127.456 22.7886V22.8059C126.929 22.8059 126.487 22.78 126.121 22.711C125.764 22.642 125.481 22.5731 125.275 22.4954V18.1321C125.472 18.0544 125.764 17.9855 126.121 17.9165C126.478 17.8561 126.929 17.8216 127.456 17.8216C127.644 17.8216 127.851 17.8389 128.086 17.882C128.321 17.9251 128.537 18.0286 128.753 18.201C128.97 18.3735 129.148 18.6236 129.299 18.9513C129.449 19.279 129.524 19.7274 129.524 20.3051C129.524 20.8829 129.449 21.3313 129.299 21.659C129.148 21.9867 128.97 22.2367 128.753 22.4092C128.546 22.5817 128.321 22.6852 128.086 22.7283ZM136.021 16.4246C136.125 16.4246 136.284 16.4246 136.501 16.4419C136.726 16.4505 136.961 16.4936 137.234 16.5712C137.507 16.6488 137.779 16.7609 138.061 16.9161C138.343 17.0714 138.597 17.2956 138.823 17.5801C139.048 17.8647 139.246 18.2355 139.387 18.6839C139.537 19.1323 139.613 19.6756 139.613 20.331C139.613 20.9863 139.537 21.5296 139.387 21.978C139.236 22.4264 139.048 22.7886 138.823 23.0818C138.597 23.3664 138.343 23.5906 138.061 23.7458C137.779 23.901 137.507 24.0131 137.234 24.0821C136.961 24.1511 136.717 24.1942 136.501 24.2028C136.44 24.2053 136.383 24.2077 136.332 24.2099C136.199 24.2156 136.095 24.2201 136.021 24.2201C135.908 24.2201 135.748 24.2201 135.532 24.2028C135.316 24.1942 135.072 24.1511 134.808 24.0821C134.536 24.0131 134.263 23.901 133.981 23.7458C133.699 23.5906 133.445 23.3664 133.219 23.0818C132.994 22.7972 132.796 22.4264 132.655 21.978C132.505 21.5296 132.43 20.9863 132.43 20.331C132.43 19.6756 132.505 19.1323 132.655 18.6839C132.806 18.2355 132.994 17.8733 133.219 17.5801C133.445 17.2956 133.699 17.0714 133.981 16.9161C134.263 16.7609 134.536 16.6488 134.808 16.5712C135.081 16.4936 135.316 16.4505 135.532 16.4419C135.59 16.4396 135.644 16.4372 135.694 16.4351C135.831 16.4292 135.939 16.4246 136.021 16.4246ZM136.021 22.8059C136.209 22.8059 136.416 22.7886 136.651 22.7455C136.886 22.7024 137.112 22.5989 137.319 22.4264C137.535 22.254 137.713 22.0039 137.864 21.6762C138.014 21.3485 138.089 20.8915 138.089 20.3224C138.089 19.7532 138.014 19.2962 137.864 18.9599C137.713 18.6236 137.535 18.3735 137.319 18.201C137.102 18.0286 136.877 17.9251 136.651 17.882C136.416 17.8388 136.209 17.8216 136.021 17.8216C135.852 17.8216 135.645 17.8475 135.41 17.882C135.175 17.9251 134.949 18.0286 134.743 18.201C134.526 18.3735 134.348 18.6236 134.197 18.9599C134.047 19.2962 133.972 19.7446 133.972 20.3224C133.972 20.9001 134.047 21.3485 134.197 21.6762C134.348 22.0039 134.526 22.254 134.743 22.4264C134.959 22.5989 135.175 22.7024 135.41 22.7455C135.645 22.7886 135.842 22.8059 136.021 22.8059ZM71.7506 16.4332C71.5344 16.4159 71.3745 16.4159 71.2711 16.4159C71.1886 16.4159 71.0808 16.4205 70.9442 16.4264C70.8942 16.4285 70.8402 16.4308 70.7822 16.4332C70.566 16.4418 70.331 16.4849 70.0583 16.5625C69.7857 16.6401 69.513 16.7522 69.231 16.9074C68.9489 17.0627 68.6951 17.2869 68.4694 17.5714C68.2438 17.8646 68.0558 18.2268 67.9053 18.6752C67.7549 19.1236 67.6797 19.6755 67.6797 20.3223C67.6797 20.969 67.7549 21.5209 67.9053 21.9693C68.0464 22.4177 68.2438 22.7885 68.4694 23.0731C68.6951 23.3577 68.9489 23.5819 69.231 23.7371C69.513 23.8923 69.7857 24.0044 70.0583 24.0734C70.3216 24.1424 70.566 24.1855 70.7822 24.1941C70.9984 24.2114 71.1582 24.2114 71.2711 24.2114H71.2711C71.3454 24.2114 71.4489 24.2069 71.5814 24.2012H71.5815L71.582 24.2012L71.6782 24.1971L71.7506 24.1941C71.9669 24.1855 72.2113 24.1424 72.4839 24.0734C72.7566 24.0044 73.0292 23.8923 73.3113 23.7371C73.5933 23.5819 73.8472 23.3577 74.0728 23.0731C74.2985 22.7799 74.4865 22.4177 74.6369 21.9693C74.7873 21.5209 74.8626 20.9776 74.8626 20.3223C74.8626 19.6669 74.7873 19.1236 74.6369 18.6752C74.4865 18.2268 74.2985 17.856 74.0728 17.5714C73.8472 17.2869 73.5933 17.0627 73.3113 16.9074C73.0292 16.7522 72.7566 16.6401 72.4839 16.5625C72.2113 16.4849 71.9669 16.4418 71.7506 16.4332ZM71.901 22.7368C71.666 22.7799 71.4592 22.7971 71.2711 22.7971C71.1019 22.7971 70.8951 22.7799 70.66 22.7368C70.425 22.6937 70.2087 22.5902 69.9925 22.4177C69.7763 22.2453 69.5976 21.9952 69.4472 21.6675C69.2968 21.3398 69.2216 20.8828 69.2216 20.3136C69.2216 19.7445 69.2968 19.2875 69.4472 18.9512C69.5976 18.6148 69.7763 18.3648 69.9925 18.1923C70.1993 18.0198 70.425 17.9164 70.66 17.8732C70.8951 17.8301 71.1019 17.8129 71.2711 17.8129C71.4592 17.8129 71.666 17.8301 71.901 17.8732C72.1361 17.9164 72.3523 18.0198 72.5686 18.1923C72.7848 18.3648 72.9634 18.6148 73.1138 18.9512C73.2643 19.2875 73.3395 19.7445 73.3395 20.3136C73.3395 20.8828 73.2643 21.3398 73.1138 21.6675C72.9634 21.9952 72.7848 22.2453 72.5686 22.4177C72.3617 22.5902 72.1361 22.6937 71.901 22.7368ZM144.943 16.467C145.141 16.467 145.319 16.4757 145.489 16.5015C145.658 16.5274 145.818 16.5533 145.959 16.5791C146.082 16.6043 146.191 16.6341 146.292 16.6618L146.292 16.6619L146.294 16.6623L146.349 16.6774L146.401 16.6912L146.26 17.864H144.934C144.398 17.864 143.947 17.8985 143.58 17.9589C143.223 18.0279 142.931 18.0968 142.734 18.1744V24.0469H141.211V17.2776C141.502 17.1655 141.794 17.062 142.085 16.9672C142.367 16.8723 142.659 16.7861 142.96 16.7171C143.251 16.6395 143.561 16.5878 143.881 16.536C144.201 16.4929 144.558 16.4757 144.943 16.4757V16.467ZM108.323 14.5104H106.405H106.396L102.438 24.0305H104.299L105.267 21.5125H109.385L110.354 24.0305H112.29L108.323 14.5104ZM108.915 20.2449H105.775L107.336 16.1488H107.373L108.915 20.2449ZM115.282 17.3043V24.0391H113.769L113.75 17.3043H115.282ZM114.518 16.1397C115.007 16.1397 115.411 15.7689 115.411 15.3119C115.411 14.8549 115.016 14.4841 114.518 14.4841C114.02 14.4841 113.625 14.8549 113.625 15.3119C113.625 15.7689 114.029 16.1397 114.518 16.1397ZM65.8629 17.3114V24.0462H64.3493L64.3398 17.3114H65.8629ZM65.1041 16.1485C65.593 16.1485 65.9973 15.7777 65.9973 15.3206C65.9973 14.8636 65.6024 14.4928 65.1041 14.4928C64.6058 14.4928 64.2109 14.8636 64.2109 15.3206C64.2109 15.7777 64.6152 16.1485 65.1041 16.1485ZM13.5643 18.8647C13.4515 18.5887 13.2917 18.3818 13.0942 18.2352C12.8968 18.0886 12.6806 17.9937 12.4361 17.9506C12.1917 17.8989 11.9378 17.8816 11.684 17.8816C11.4113 17.8816 11.0823 17.8989 10.7156 17.942C10.3396 17.9765 9.93528 18.0627 9.484 18.1921V24.0559H7.96094V17.2866C8.20538 17.2004 8.47802 17.1141 8.77888 17.0193C9.07973 16.9244 9.38999 16.8382 9.72845 16.7606C10.0575 16.683 10.396 16.614 10.7344 16.5623C11.0729 16.5105 11.4019 16.4846 11.7216 16.4846C12.0695 16.4846 12.4455 16.5191 12.8592 16.5795C13.2729 16.6399 13.6583 16.7865 14.0062 17.0193C14.3635 17.2521 14.6643 17.5971 14.8994 18.0627C15.1344 18.5284 15.2566 19.1579 15.2566 19.9598V24.0645H13.7336V19.9598C13.7336 19.5114 13.6771 19.1492 13.5549 18.8733L13.5643 18.8647ZM44.0708 18.1928C44.2682 18.3394 44.4281 18.5463 44.5409 18.8223V18.8309C44.6631 19.1068 44.7195 19.469 44.7195 19.9174V24.0221H46.2426V19.9174C46.2426 19.1155 46.1204 18.486 45.8853 18.0203C45.6503 17.5546 45.3494 17.2097 44.9922 16.9769C44.6349 16.744 44.2494 16.5975 43.8358 16.5371C43.4221 16.4767 43.046 16.4422 42.6982 16.4422C42.3785 16.4422 42.0494 16.4681 41.711 16.5198C41.3725 16.5716 41.0341 16.6406 40.705 16.7182C40.3666 16.7958 40.0563 16.882 39.7554 16.9769C39.4546 17.0717 39.1819 17.158 38.9375 17.2442V24.0135H40.4606V18.1496C40.9119 18.0117 41.3161 17.9254 41.6922 17.8909C42.0589 17.8565 42.3879 17.8392 42.6606 17.8392C42.9144 17.8392 43.1683 17.8565 43.4127 17.9082C43.6571 17.9513 43.8734 18.0462 44.0708 18.1928ZM153.002 23.9599C152.871 24.003 152.72 24.0462 152.56 24.0893C152.419 24.1151 152.26 24.141 152.081 24.1669C151.902 24.1928 151.714 24.2014 151.517 24.2014C151.131 24.2014 150.736 24.1755 150.351 24.141C149.956 24.0979 149.608 24.003 149.298 23.8478C148.988 23.6926 148.734 23.4598 148.536 23.158C148.339 22.8561 148.236 22.4336 148.236 21.9076V17.8805H147.258V17.2424L148.988 15.0262H149.749V16.6215H152.363V17.8805H149.749V21.9076C149.749 22.0455 149.749 22.1835 149.768 22.3215C149.777 22.4595 149.834 22.5802 149.937 22.6837C150.041 22.7872 150.21 22.882 150.454 22.9424C150.699 23.0114 151.056 23.0372 151.526 23.0372H152.852L153.002 23.9513V23.9599ZM21.797 24.098C21.9569 24.0549 22.1073 24.0118 22.2389 23.9687H22.2483L22.0979 23.0546H20.7723C20.3022 23.0546 19.9449 23.0287 19.7005 22.9597C19.456 22.8994 19.2868 22.8131 19.1834 22.701C19.08 22.5889 19.0236 22.4682 19.0141 22.3302C18.9953 22.1923 18.9953 22.0543 18.9953 21.9164V21.9163V17.8892H21.609V16.6302H18.9953V15.0349H18.2338L16.5039 17.2511V17.8892H17.4817V21.9163C17.4817 22.4423 17.5851 22.8563 17.7825 23.1667C17.98 23.4685 18.2338 23.7013 18.5441 23.8566C18.8543 24.0032 19.2022 24.1066 19.5971 24.1497C19.9825 24.1842 20.3774 24.2101 20.7629 24.2101C20.9509 24.2101 21.1389 24.2015 21.3176 24.1756C21.4962 24.1497 21.656 24.1239 21.797 24.098ZM62.3756 23.9511C62.244 23.9942 62.0936 24.0373 61.9338 24.0804C61.7927 24.1063 61.6329 24.1322 61.4543 24.158C61.2757 24.1839 61.0876 24.1925 60.8996 24.1925C60.5141 24.1925 60.1192 24.1667 59.7338 24.1322C59.3389 24.089 58.991 23.9942 58.6808 23.839C58.3705 23.6837 58.1167 23.4509 57.9193 23.1491C57.7218 22.8473 57.6184 22.4247 57.6184 21.8987V17.8716H56.6406V17.2335L58.3705 15.0173H59.1321V16.6126H61.7457V17.8716H59.1321V21.8987V21.8991C59.1321 22.0369 59.1321 22.1748 59.1415 22.3126C59.1509 22.4506 59.2073 22.5713 59.3107 22.6748C59.4141 22.7869 59.5833 22.8732 59.8278 22.9335C60.0722 23.0025 60.4295 23.0284 60.8996 23.0284H62.2252L62.385 23.9424L62.3756 23.9511ZM52.1467 16.4681C51.9022 16.4509 51.6954 16.4422 51.5262 16.4422L51.5168 16.4595C51.1125 16.4595 50.7552 16.4767 50.4356 16.5112C50.1065 16.5457 49.8339 16.5802 49.5988 16.6147L49.4977 16.6345C49.2748 16.6779 49.0724 16.7174 48.8843 16.7699L49.0253 17.9944C49.2331 17.9627 49.5207 17.9382 49.8807 17.9076L49.9749 17.8996C50.3792 17.8651 50.8962 17.8478 51.5168 17.8478C52.0056 17.8478 52.3817 17.891 52.645 17.9772C52.9082 18.0548 53.1056 18.1583 53.2279 18.2704C53.3501 18.3825 53.4253 18.5032 53.4441 18.6239C53.4723 18.7447 53.4723 18.8481 53.4723 18.9344V19.538C53.1808 19.4604 52.8518 19.3914 52.4851 19.3397C52.1185 19.2793 51.7142 19.2534 51.2911 19.2534C51.1125 19.2534 50.9056 19.262 50.6706 19.2793C50.4262 19.2965 50.1817 19.3397 49.9185 19.4C49.6552 19.469 49.4014 19.5466 49.1475 19.6587C48.8937 19.7708 48.668 19.9174 48.4706 20.0985C48.2732 20.2796 48.1133 20.5038 47.9911 20.7711C47.8783 21.0385 47.8125 21.3575 47.8125 21.7369C47.8125 22.1164 47.8689 22.4354 47.9911 22.7027C48.1133 22.9701 48.2732 23.1943 48.4706 23.3754C48.668 23.5651 48.8937 23.703 49.1475 23.8152C49.4014 23.9186 49.6552 24.0049 49.9185 24.0652C50.1817 24.1256 50.4356 24.1687 50.6706 24.186C50.9151 24.2032 51.1125 24.2118 51.2911 24.2118C52.0244 24.2118 52.6544 24.1428 53.1902 23.9962C53.7261 23.8496 54.1586 23.7203 54.4971 23.6082L55.0048 23.453V18.9257C55.0048 18.5549 54.939 18.2273 54.8167 17.9599C54.6945 17.684 54.5347 17.4598 54.3279 17.2787C54.1304 17.089 53.8954 16.9424 53.6509 16.8389C53.4065 16.7354 53.1526 16.6492 52.8894 16.5888C52.6355 16.5285 52.3817 16.4854 52.1467 16.4681ZM52.6261 22.7372C52.2689 22.7976 51.8176 22.8321 51.2911 22.8321V22.8235C50.8022 22.8235 50.4262 22.7804 50.1629 22.7027C49.8903 22.6165 49.7022 22.5217 49.58 22.4096C49.4578 22.2975 49.3826 22.1767 49.3638 22.056C49.3356 21.9353 49.3356 21.8318 49.3356 21.7456C49.3356 21.6593 49.345 21.5558 49.3638 21.4351C49.3826 21.3144 49.4578 21.1937 49.58 21.0816C49.7022 20.9695 49.8997 20.8746 50.1629 20.7884C50.4262 20.7021 50.8022 20.659 51.2911 20.659C51.8176 20.659 52.2595 20.6849 52.6261 20.7539C52.9834 20.8229 53.2655 20.8919 53.4723 20.9695V22.5217C53.2655 22.5993 52.9834 22.6683 52.6261 22.7372ZM82.262 18.899C82.1491 18.6231 81.9893 18.4161 81.8013 18.2695C81.6039 18.1229 81.3876 18.0281 81.1432 17.985C80.8987 17.9332 80.6449 17.916 80.391 17.916C80.1184 17.916 79.7893 17.9332 79.4227 17.9764C79.0466 18.0108 78.6423 18.0971 78.191 18.2264V24.0903H76.668V17.321C76.9124 17.2348 77.1851 17.1485 77.4859 17.0537C77.7868 16.9588 78.097 16.8726 78.4355 16.795C78.7645 16.7174 79.103 16.6484 79.4415 16.5966C79.7799 16.5449 80.109 16.519 80.4286 16.519C80.7765 16.519 81.1526 16.5449 81.5662 16.6139C81.9799 16.6742 82.3654 16.8208 82.7226 17.0537C83.0799 17.2865 83.3808 17.6314 83.6158 18.0971C83.8602 18.5627 83.9731 19.1922 83.9731 19.9942V24.0989H82.45V19.9942C82.45 19.5458 82.3936 19.1836 82.2714 18.9077L82.262 18.899ZM89.8583 16.4418C89.6139 16.4245 89.407 16.4159 89.2378 16.4159V16.4332C88.8335 16.4332 88.4763 16.4504 88.1566 16.4849C87.8276 16.5194 87.5549 16.5539 87.3199 16.5884L87.2188 16.6081C86.9959 16.6516 86.7935 16.6911 86.6054 16.7436L86.7464 17.9681C86.9542 17.9363 87.2417 17.9119 87.6016 17.8813L87.6959 17.8732C88.1002 17.8388 88.6173 17.8215 89.2378 17.8215C89.7267 17.8215 90.1028 17.8646 90.366 17.9509C90.6293 18.0285 90.8267 18.1319 90.9489 18.244C91.0712 18.3562 91.1464 18.4769 91.1652 18.5976C91.184 18.7183 91.1934 18.8218 91.1934 18.908V19.5117C90.9019 19.4341 90.5729 19.3737 90.2062 19.3133C89.8395 19.253 89.4353 19.2271 89.0122 19.2271C88.8336 19.2271 88.6361 19.2357 88.3917 19.253C88.1566 19.2702 87.9122 19.3133 87.6489 19.3737C87.3857 19.4341 87.1319 19.5117 86.878 19.6238C86.6242 19.7359 86.3985 19.8825 86.2011 20.0636C86.0036 20.2447 85.8438 20.4689 85.7216 20.7362C85.5994 21.0035 85.543 21.3226 85.543 21.702C85.543 22.0814 85.5994 22.4005 85.7216 22.6678C85.8438 22.9437 86.0036 23.1679 86.2011 23.349C86.3985 23.5387 86.6242 23.6853 86.878 23.7888C87.1319 23.8923 87.3857 23.9785 87.6489 24.0389C87.9028 24.0993 88.1566 24.1424 88.3917 24.1596C88.6361 24.1769 88.843 24.1855 89.0122 24.1855C89.7455 24.1855 90.3754 24.1165 90.9113 23.9699C91.4472 23.8233 91.8797 23.694 92.2182 23.5819L92.7258 23.4267V18.8994C92.7258 18.52 92.66 18.2009 92.5378 17.9336C92.4156 17.6577 92.2558 17.4335 92.0489 17.2524C91.8515 17.0627 91.6164 16.9247 91.372 16.8126C91.1182 16.7091 90.8737 16.6229 90.6105 16.5625C90.3472 16.5021 90.0934 16.459 89.8583 16.4418ZM90.3472 22.7109C89.99 22.7713 89.5387 22.8058 89.0122 22.8058V22.7885C88.5233 22.7885 88.1472 22.7454 87.884 22.6678C87.6113 22.5902 87.4233 22.4953 87.3011 22.3832C87.1789 22.2711 87.1036 22.1504 87.0848 22.0297C87.0566 21.909 87.0566 21.8055 87.0566 21.7193V21.7192C87.0566 21.633 87.066 21.5295 87.0848 21.4088C87.1036 21.2881 87.1789 21.1673 87.3011 21.0552C87.4233 20.9431 87.6207 20.8483 87.884 20.762C88.1472 20.6758 88.5233 20.6327 89.0122 20.6327C89.5387 20.6327 89.99 20.6672 90.3472 20.7276C90.7045 20.7965 90.9865 20.8655 91.1934 20.9431V22.4953C90.9865 22.5729 90.7045 22.6506 90.3472 22.7109ZM24.7441 20.883C24.7441 21.3141 24.9227 21.728 25.2894 22.1333C25.7501 22.6507 26.3424 22.9008 27.0757 22.9008C27.9312 22.9008 28.8714 22.7283 29.9056 22.392V23.7976C28.862 24.0736 27.9218 24.2115 27.0757 24.2115C25.7501 24.2115 24.7253 23.8321 24.0013 23.0646C23.315 22.3489 22.9766 21.4262 22.9766 20.288C22.9766 19.1497 23.3056 18.2787 23.9543 17.563C24.6783 16.7524 25.7125 16.3471 27.0569 16.3471C27.9689 16.3471 28.7492 16.6317 29.3979 17.1922C30.0466 17.7527 30.3757 18.4339 30.3757 19.2359C30.3757 19.7447 30.1688 20.1414 29.7646 20.4345C29.3603 20.7277 28.8714 20.8743 28.2979 20.8743H24.7347L24.7441 20.883ZM27.0794 17.6665C26.2736 17.6678 25.655 17.9437 25.2048 18.4943C24.9039 18.8824 24.7441 19.2359 24.7441 19.5636H28.1475C28.5047 19.5636 28.6834 19.4084 28.6834 19.0979C28.6834 18.7875 28.5142 18.4684 28.1757 18.1407C27.8383 17.8227 27.4729 17.6674 27.0794 17.6665ZM27.0794 17.6665C27.0813 17.6665 27.0832 17.6665 27.0851 17.6665H27.0757C27.0769 17.6665 27.0782 17.6665 27.0794 17.6665ZM95.1344 23.7457C95.5105 24.0389 95.9712 24.1855 96.507 24.1855L96.5164 24.1941C97.0147 24.1941 97.4566 24.1079 97.8421 23.9354V22.8144C97.5318 22.9783 97.1652 23.0645 96.7139 23.0645C96.2626 23.0645 96.037 22.8662 96.037 22.4695V14.6999H94.5703V22.5902C94.5703 23.0559 94.7583 23.4439 95.1344 23.7457Z" fill="white"/>
</svg>
