<svg width="20" height="20" viewBox="0 0 20 20" fill="none" xmlns="http://www.w3.org/2000/svg">
<path fill-rule="evenodd" clip-rule="evenodd" d="M9.9999 0.399994C9.33716 0.399994 8.7999 0.937252 8.7999 1.59999V8.79999H1.5999C0.937161 8.79999 0.399902 9.33725 0.399902 9.99999C0.399902 10.6627 0.93716 11.2 1.5999 11.2H8.7999V18.4C8.7999 19.0627 9.33716 19.6 9.9999 19.6C10.6626 19.6 11.1999 19.0627 11.1999 18.4V11.2H18.3999C19.0626 11.2 19.5999 10.6627 19.5999 9.99999C19.5999 9.33725 19.0626 8.79999 18.3999 8.79999H11.1999V1.59999C11.1999 0.937252 10.6626 0.399994 9.9999 0.399994Z" fill="white"/>
</svg>
